<svg width="1210" height="460" viewBox="0 0 1210 460" fill="none" xmlns="http://www.w3.org/2000/svg">
<g clip-path="url(#clip0)">
<path d="M0.0800781 375.098H747.921V459.754H0.0800781V375.098Z" fill="white"/>
<path d="M256.83 323.08V81.194H211.404V115.25H210.531C193.059 88.6165 162.047 74.6448 128.415 74.6448C41.4946 74.6448 0 144.067 0 203.01C0 266.756 46.7361 329.192 128.415 329.192C161.174 329.192 193.059 315.22 210.531 285.53H211.404V323.08H256.83ZM212.278 202.573C212.278 248.855 175.588 287.714 127.978 287.714C79.9317 287.714 45.4257 246.235 45.4257 202.573C45.4257 164.588 72.5064 116.123 128.415 116.123C175.151 116.123 212.278 151.053 212.278 202.573Z" fill="white"/>
<path d="M360.928 323.08V190.785C360.928 156.292 373.158 137.954 387.572 130.095C398.491 124.419 413.342 121.363 420.33 121.363V74.6448C408.974 75.0814 377.962 75.9546 358.744 103.025H357.87V81.194H315.502V323.08H360.928Z" fill="white"/>
<path d="M600.682 81.1906L514.635 197.767H513.762V-0.0200195H468.336V323.076H513.762V197.767H514.635L611.601 323.076H668.384L566.613 195.148L654.406 81.1906H600.682Z" fill="white"/>
<path d="M917.322 323.08V179.869C916.885 152.799 911.644 133.588 902.035 117.87C884.563 90.7996 853.988 74.6448 816.425 74.6448C806.816 74.6448 770.126 74.6448 745.666 106.954H744.792V81.194H702.424V323.08H747.85V191.221C747.85 142.757 773.62 116.123 811.62 116.123C871.896 116.123 871.897 172.883 871.897 191.658V323.08H917.322Z" fill="white"/>
<path d="M1208.7 221.785C1209.13 218.728 1210.01 206.503 1210.01 198.644C1209.57 127.912 1152.35 74.6448 1086.83 74.6448C1018.7 74.6448 962.787 129.222 962.787 201.7C962.787 270.249 1017.39 329.192 1085.96 329.192C1123.52 329.192 1179 309.544 1202.15 247.108H1156.72C1145.8 268.066 1121.34 287.714 1087.71 287.714C1057.13 287.714 1019.57 268.502 1008.21 221.785H1208.7ZM1008.21 186.855C1010.4 151.489 1042.72 116.123 1086.4 116.123C1130.08 116.123 1162.4 151.489 1164.58 186.855H1008.21Z" fill="white"/>
<path d="M880.932 396.632C872.901 381.802 857.953 374.332 843.898 374.332C820.138 374.332 801.732 393.622 801.732 417.373C801.732 440.454 819.915 459.968 844.009 459.968C864.088 459.968 886.175 445.026 886.621 417.373H834.416V428.412H872.901C864.981 448.705 846.799 448.928 844.456 448.928C828.84 448.928 813.781 435.548 813.781 417.373C813.781 400.09 827.166 385.371 844.345 385.371C856.503 385.371 863.419 392.841 866.877 396.632H880.932Z" fill="white"/>
<path d="M958.732 458.397L935.642 427.621C940.996 427.621 959.29 424.164 959.29 402.31C959.29 395.396 956.947 387.814 951.704 382.796C947.354 378.671 941.331 375.883 929.73 375.883H904.186V458.396H916.232V420.15H916.458L943.675 458.396L958.732 458.397ZM916.232 386.922H928.948C942.557 386.922 947.242 395.396 947.242 402.309C947.242 418.254 929.394 418.477 924.486 418.477H916.232V386.922Z" fill="white"/>
<path d="M1060.05 417.363C1060.05 393.836 1041.64 374.322 1017.1 374.322C991.891 374.322 974.154 394.727 974.154 417.14C974.154 439.775 992.448 459.958 1017.1 459.958C1041.64 459.958 1060.05 439.888 1060.05 417.363ZM1048 417.476C1048 430.41 1038.41 448.92 1017.1 448.92C995.907 448.92 986.202 430.633 986.202 417.141C986.202 403.983 995.795 385.362 1017.1 385.362C1037.63 385.362 1048 402.868 1048 417.476Z" fill="white"/>
<path d="M1134.51 375.894H1122.47V431.423C1122.47 446.699 1111.31 448.929 1106.85 448.929C1102.39 448.929 1091.23 446.699 1091.23 431.423V375.894H1079.19V431.758C1079.19 441.124 1082.31 447.926 1087.55 452.943C1092.68 457.18 1099.26 459.968 1106.85 459.968C1114.43 459.968 1121.02 457.18 1126.15 452.943C1131.39 447.926 1134.51 441.124 1134.51 431.758V375.894Z" fill="white"/>
<path d="M1168.86 425.817H1180.68C1200.43 425.817 1209.8 415.559 1209.8 400.84C1209.8 386.122 1200.43 375.863 1180.68 375.863H1156.81V458.376H1168.86V425.817ZM1168.86 386.902H1180.68C1194.4 386.902 1197.75 394.707 1197.75 400.84C1197.75 406.972 1194.4 414.777 1180.68 414.777H1168.86V386.902Z" fill="white"/>
</g>
<defs>
<clipPath id="clip0">
<rect width="1210" height="460" fill="white"/>
</clipPath>
</defs>
</svg>
