<?xml version="1.0" encoding="UTF-8" standalone="no"?>
<svg
   xmlns:dc="http://purl.org/dc/elements/1.1/"
   xmlns:cc="http://creativecommons.org/ns#"
   xmlns:rdf="http://www.w3.org/1999/02/22-rdf-syntax-ns#"
   xmlns:svg="http://www.w3.org/2000/svg"
   xmlns="http://www.w3.org/2000/svg"
   xmlns:sodipodi="http://sodipodi.sourceforge.net/DTD/sodipodi-0.dtd"
   xmlns:inkscape="http://www.inkscape.org/namespaces/inkscape"
   width="22"
   height="22"
   viewBox="0 0 22 22"
   fill="none"
   version="1.1"
   id="svg58"
   sodipodi:docname="arrow-down-circleedited.svg"
   inkscape:version="1.0.2-2 (e86c870879, 2021-01-15)">
  <metadata
     id="metadata64">
    <rdf:RDF>
      <cc:Work
         rdf:about="">
        <dc:format>image/svg+xml</dc:format>
        <dc:type
           rdf:resource="http://purl.org/dc/dcmitype/StillImage" />
        <dc:title></dc:title>
      </cc:Work>
    </rdf:RDF>
  </metadata>
  <defs
     id="defs62" />
  <sodipodi:namedview
     pagecolor="#ffffff"
     bordercolor="#666666"
     borderopacity="1"
     objecttolerance="10"
     gridtolerance="10"
     guidetolerance="10"
     inkscape:pageopacity="0"
     inkscape:pageshadow="2"
     inkscape:window-width="1655"
     inkscape:window-height="1053"
     id="namedview60"
     showgrid="false"
     units="in"
     inkscape:zoom="16.199174"
     inkscape:cx="12.722084"
     inkscape:cy="7.619289"
     inkscape:window-x="2651"
     inkscape:window-y="129"
     inkscape:window-maximized="0"
     inkscape:current-layer="svg58" />
  <path
     d="m 7.15609,8.5313 c 0.3087,-0.3066 0.8064,-0.3066 1.113,0.0021 l 3.08701,3.1007 3.087,-3.1007 c 0.3066,-0.3087 0.8053,-0.3087 1.114,-0.0021 0.3077,0.3066 0.3087,0.80535 0.0021,1.11405 l -3.6456,3.66025 c -0.147,0.1492 -0.3475,0.2321 -0.5575,0.2321 -0.209,0 -0.4095,-0.0829 -0.5576,-0.2321 L 7.15399,9.64535 C 6.84634,9.33665 6.84739,8.8379 7.15609,8.5313 Z"
     id="path91" />
  <path
     d="m 11.3569,0.10379 c 5.7897,0 10.5,4.7103 10.5,10.50001 0,5.7897 -4.7103,10.5 -10.5,10.5 -5.78967,0 -10.499966,-4.7103 -10.499966,-10.5 0,-3.28441 1.494146,-6.31786 4.097096,-8.32336 0.3339,-0.25725 0.8148,-0.19425 1.071,0.1386 0.2583,0.3339 0.19425,0.8127 -0.1386,1.07205 -2.22705,1.71255 -3.5028,4.30605 -3.5028,7.11271 0,4.9476 4.02465,8.9733 8.97327,8.9733 4.9476,0 8.9723,-4.0257 8.9723,-8.9733 0,-4.94761 -4.0247,-8.97331 -8.9723,-8.97331 -0.4588,0 -0.9177,0.03465 -1.36392,0.1029 -0.4158,0.063 -0.80535,-0.2226 -0.8694,-0.63945 -0.0693,-0.41895 0.22155,-0.8064 0.6384,-0.87045 0.52292,-0.0798 1.05942,-0.1197 1.59492,-0.1197 z"
     id="path56" />
</svg>
