<svg width="22" height="22" viewBox="0 0 22 22" fill="none" xmlns="http://www.w3.org/2000/svg">
<path d="M11.3569 0.10379C17.1466 0.10379 21.8569 4.81409 21.8569 10.6038C21.8569 16.3935 17.1466 21.1038 11.3569 21.1038C5.56723 21.1038 0.856934 16.3935 0.856934 10.6038C0.856934 7.31939 2.35108 4.28594 4.95403 2.28044C5.28793 2.02319 5.76883 2.08619 6.02503 2.41904C6.28333 2.75294 6.21928 3.23174 5.88643 3.49109C3.65938 5.20364 2.38363 7.79714 2.38363 10.6038C2.38363 15.5514 6.40828 19.5771 11.3569 19.5771C16.3045 19.5771 20.3292 15.5514 20.3292 10.6038C20.3292 5.65619 16.3045 1.63049 11.3569 1.63049C10.8981 1.63049 10.4392 1.66514 9.99298 1.73339C9.57718 1.79639 9.18763 1.51079 9.12358 1.09394C9.05428 0.67499 9.34513 0.28754 9.76198 0.22349C10.2849 0.14369 10.8214 0.10379 11.3569 0.10379ZM7.15609 8.5313C7.46479 8.2247 7.96249 8.2247 8.26909 8.5334L11.3561 11.6341L14.4431 8.5334C14.7497 8.2247 15.2484 8.2247 15.5571 8.5313C15.8648 8.8379 15.8658 9.33665 15.5592 9.64535L11.9136 13.3056C11.7666 13.4548 11.5661 13.5377 11.3561 13.5377C11.1471 13.5377 10.9466 13.4548 10.7985 13.3056L7.15399 9.64535C6.84634 9.33665 6.84739 8.8379 7.15609 8.5313Z" fill="#FFD357"/>
</svg>
