<svg width="38" height="35" viewBox="0 0 38 35" fill="none" xmlns="http://www.w3.org/2000/svg">
<path d="M35.4126 29.75H34.4445V28.7819C34.4445 28.4346 34.3065 28.1015 34.0609 27.8558C33.8153 27.6102 33.4821 27.4722 33.1348 27.4722H29.8889V19.0786H25.3334V27.4722H20.7778V19.0786H16.2223V27.4722H11.6667V19.0786H7.11117V27.4722H3.86533C3.51797 27.4722 3.18484 27.6102 2.93922 27.8558C2.6936 28.1015 2.55561 28.4346 2.55561 28.7819V29.75H1.58755C1.24019 29.75 0.907061 29.888 0.661441 30.1336C0.41582 30.3792 0.277832 30.7124 0.277832 31.0597V34.3056H36.7223V31.0597C36.7223 30.7124 36.5843 30.3792 36.3387 30.1336C36.093 29.888 35.7599 29.75 35.4126 29.75Z" fill="#FFD357"/>
<path d="M32.1668 14.375C30.9608 14.3804 29.7675 14.1293 28.666 13.6384C27.5645 13.1475 26.5799 12.4281 25.7776 11.5278H23.2265L18.7848 8.97667L14.3431 11.5278H10.6873L18.3406 7.13167C18.4792 7.05171 18.6363 7.00961 18.7962 7.00961C18.9561 7.00961 19.1133 7.05171 19.2518 7.13167L24.9462 10.4003C24.0796 9.03497 23.6213 7.45044 23.6251 5.83334V5.28667L18.5001 2.32556L0.847314 12.4731C0.711211 12.5443 0.590916 12.6423 0.493667 12.7611C0.396418 12.88 0.324223 13.0174 0.281427 13.1649C0.23863 13.3124 0.226117 13.4671 0.244638 13.6195C0.26316 13.772 0.312334 13.9192 0.389203 14.0522C0.466071 14.1851 0.569045 14.3012 0.691931 14.3934C0.814816 14.4855 0.955073 14.5519 1.10426 14.5884C1.25345 14.6249 1.40849 14.6309 1.56006 14.606C1.71162 14.5811 1.85658 14.5257 1.9862 14.4433L3.69454 13.4411V17.2222H33.3056V14.2839C32.9285 14.3395 32.548 14.37 32.1668 14.375Z" fill="#FFD357"/>
<path d="M34.3765 14.0789L35.0142 14.4434C35.2149 14.5569 35.4453 14.6069 35.675 14.5866C35.9047 14.5664 36.1229 14.4769 36.3006 14.3301C36.4783 14.1832 36.6073 13.9858 36.6705 13.764C36.7336 13.5423 36.728 13.3066 36.6542 13.0881C35.9477 13.5283 35.1802 13.8622 34.3765 14.0789Z" fill="#FFD357"/>
<path d="M32.1666 11.5278C35.3116 11.5278 37.8611 8.97832 37.8611 5.83336C37.8611 2.68841 35.3116 0.138916 32.1666 0.138916C29.0217 0.138916 26.4722 2.68841 26.4722 5.83336C26.4722 8.97832 29.0217 11.5278 32.1666 11.5278Z" fill="#FFD357"/>
</svg>
