<svg width="318" height="312" viewBox="0 0 318 312" fill="none" xmlns="http://www.w3.org/2000/svg">
<path d="M114 147.2H116.3C116.7 147.2 117 147.1 117.3 147C117.6 146.9 117.8 146.7 118 146.5C118.2 146.3 118.2 146 118.2 145.7C118.2 145.2 118 144.8 117.7 144.6C117.4 144.4 116.9 144.2 116.3 144.2H114.8V153.3H116.6C117.1 153.3 117.5 153.2 117.8 153.1C118.2 153 118.4 152.8 118.7 152.5C118.9 152.2 119 151.9 119 151.4C119 151.1 118.9 150.8 118.8 150.6C118.7 150.4 118.5 150.2 118.3 150.1C118.1 150 117.8 149.9 117.5 149.8C117.2 149.7 116.9 149.7 116.6 149.7H114V147.8H117.1C117.8 147.8 118.5 147.9 119.2 148C119.9 148.2 120.5 148.4 121 148.7C121.5 149 122 149.5 122.3 150C122.6 150.5 122.8 151.1 122.8 151.9C122.8 152.9 122.6 153.6 122.1 154.2C121.6 154.8 121 155.2 120.1 155.5C119.3 155.8 118.3 155.9 117.1 155.9H111.4V141.4H116.7C117.7 141.4 118.6 141.5 119.4 141.8C120.2 142.1 120.8 142.5 121.2 143C121.6 143.5 121.9 144.2 121.9 145.1C121.9 145.9 121.7 146.5 121.2 147C120.8 147.5 120.1 147.9 119.4 148.2C118.7 148.5 117.7 148.6 116.7 148.6H114V147.2Z" fill="white"/>
<path d="M129.9 141.4V155.9H126.4V141.4H129.9ZM128.6 141.4H131.7C132.9 141.4 134 141.6 134.8 142C135.6 142.4 136.3 143 136.7 143.7C137.1 144.4 137.3 145.2 137.3 146.2C137.3 147.1 137.1 147.9 136.7 148.7C136.3 149.4 135.6 150 134.8 150.4C134 150.8 132.9 151 131.7 151H128.6V148.3H131.4C131.9 148.3 132.3 148.2 132.6 148.1C132.9 148 133.2 147.7 133.4 147.5C133.6 147.2 133.7 146.9 133.7 146.5C133.7 146.1 133.6 145.8 133.4 145.5C133.2 145.2 133 145 132.6 144.8C132.3 144.6 131.9 144.6 131.4 144.6H128.6V141.4ZM133.6 149.4L138.1 156H134L129.9 149.4H133.6Z" fill="white"/>
<path d="M140.801 145.6C141.201 144.7 141.701 143.9 142.401 143.2C143.101 142.5 143.901 142 144.901 141.6C145.901 141.2 146.901 141.1 148.001 141.1C149.101 141.1 150.201 141.3 151.101 141.6C152.001 142 152.901 142.5 153.601 143.2C154.301 143.9 154.901 144.7 155.201 145.6C155.601 146.5 155.801 147.5 155.801 148.7C155.801 149.8 155.601 150.8 155.201 151.8C154.801 152.8 154.301 153.6 153.601 154.2C152.901 154.9 152.101 155.4 151.101 155.8C150.101 156.2 149.101 156.4 148.001 156.4C146.901 156.4 145.801 156.2 144.901 155.8C143.901 155.4 143.101 154.9 142.401 154.2C141.701 153.5 141.201 152.7 140.801 151.8C140.401 150.9 140.201 149.8 140.201 148.7C140.201 147.6 140.401 146.5 140.801 145.6ZM144.401 151C144.701 151.7 145.201 152.2 145.801 152.5C146.401 152.9 147.101 153.1 148.001 153.1C148.801 153.1 149.501 152.9 150.101 152.5C150.701 152.1 151.201 151.6 151.501 151C151.801 150.4 152.001 149.6 152.001 148.7C152.001 147.8 151.801 147.1 151.501 146.4C151.201 145.7 150.701 145.2 150.101 144.9C149.501 144.6 148.801 144.3 147.901 144.3C147.101 144.3 146.301 144.5 145.701 144.9C145.101 145.3 144.601 145.8 144.301 146.4C144.001 147.1 143.801 147.8 143.801 148.7C143.801 149.6 144.101 150.3 144.401 151Z" fill="white"/>
<path d="M175.001 141.4H179.201L172.901 156.8L168.201 148.1L163.501 156.8L157.201 141.4H161.301L164.201 149.7L168.101 140.7L172.101 149.7L175.001 141.4Z" fill="white"/>
<path d="M183.401 151.4L183.601 152.2L181.801 155.9H177.801L185.401 140.5L193.001 155.9H189.001L187.301 152.3L187.401 151.4L185.301 146.7L183.401 151.4ZM181.901 150.5H189.101L189.301 153.2H181.601L181.901 150.5Z" fill="white"/>
<path d="M199.1 141.4V155.9H195.6V141.4H199.1ZM197.8 141.4H200.9C202.1 141.4 203.2 141.6 204 142C204.8 142.4 205.5 143 205.9 143.7C206.3 144.4 206.5 145.2 206.5 146.2C206.5 147.1 206.3 147.9 205.9 148.7C205.5 149.4 204.8 150 204 150.4C203.2 150.8 202.1 151 200.9 151H197.8V148.3H200.6C201.1 148.3 201.5 148.2 201.8 148.1C202.1 148 202.4 147.7 202.6 147.5C202.8 147.3 202.9 146.9 202.9 146.5C202.9 146.1 202.8 145.8 202.6 145.5C202.4 145.2 202.2 145 201.8 144.8C201.5 144.6 201.1 144.6 200.6 144.6H197.8V141.4ZM202.9 149.4L207.4 156H203.3L199.2 149.4H202.9Z" fill="white"/>
<path d="M36.1016 167.5L54.9016 193.5L73.7016 167.5V208.1H67.1016V187.8L54.9016 204.6L42.8016 187.8V208.1H36.1016V167.5Z" fill="white"/>
<path d="M81.502 168.5H106.102V175.2H88.102V185H104.002V191.7H88.102V201.5H106.102V208.2H81.502V168.5Z" fill="white"/>
<path d="M120.102 183.8V208.1H113.402V167.5L137.202 192.9V168.5H143.902V209.2L120.102 183.8Z" fill="white"/>
<path d="M159.802 175.2H149.602V168.5H176.502V175.2H166.402V208.1H159.702V175.2H159.802Z" fill="white"/>
<path d="M201.302 175.2H182.902V168.5H213.002L193.602 201.4H213.002V208.1H182.002L201.302 175.2Z" fill="white"/>
<path d="M220.002 168.5H244.602V175.2H226.602V185H242.502V191.7H226.602V201.5H244.602V208.2H220.002V168.5Z" fill="white"/>
<path d="M258.901 183.8V208.1H252.201V167.5L276.001 192.9V168.5H282.701V209.2L258.901 183.8Z" fill="white"/>
<path d="M141.601 21.0999C141.401 20.8999 141.301 20.6999 141.301 20.6999C141.201 20.4999 141.101 20.2999 141.001 20.0999C140.701 19.5999 140.501 19.1 140.501 17.7C140.401 15.1 140.701 13.4 141.001 11.7C141.201 10.5 141.501 7.79995 141.601 6.99995V6.69995V6.39995C141.601 5.69995 141.601 4.89995 141.601 4.79995L141.501 0.199951H140.601C138.801 0.199951 137.701 0.19995 137.101 0.29995C99.8008 3.19995 65.2008 21.4999 39.6008 51.6999C14.6008 81.2999 0.800781 118.8 0.800781 157.4C0.800781 227.3 47.6008 289.9 114.601 309.6L119.801 311.1L118.401 225.8H110.401L111.601 300.2C51.1008 280 8.90078 221.3 8.90078 157.4C8.90078 85.2 62.3008 21.5 133.301 8.99995C133.201 9.49995 133.101 10.0999 133.101 10.5999C132.801 12.3999 132.401 14.6999 132.501 18.0999C132.601 21.0999 133.401 22.6999 133.801 23.5999L133.901 23.9C134.101 24.4 134.501 24.8999 135.201 26.0999C135.601 26.6999 136.101 27.5 136.401 28C136.101 38.1 133.701 46.3999 130.901 56.0999C130.301 58.0999 129.701 60.0999 129.201 62.1999C126.701 71.2999 123.901 80.3 121.301 89.1L121.201 89.5C119.701 94.5 118.101 99.7 116.601 104.8C114.401 112.3 112.801 119 111.801 125.2L111.601 126.1H119.701L119.801 125.4C120.801 119.8 122.201 113.8 124.201 107C125.601 102.1 127.101 97.1999 128.601 92.3999L129.001 91.1C131.701 82.3 134.401 73.1999 136.901 64.1999C137.501 62.0999 138.101 60.0999 138.601 58.1999C141.501 48.1999 144.201 38.7999 144.401 27.1999C144.401 25.6999 143.801 24.5999 141.901 21.6999L141.601 21.0999Z" fill="white"/>
<path d="M278.8 51.6999C253.2 21.4999 218.6 3.19995 181.3 0.29995C180.8 0.29995 179.6 0.199951 177.8 0.199951H176.9L176.8 4.79995C176.8 4.89995 176.8 5.69995 176.8 6.39995V6.79995V7.09995C176.9 7.89995 177.2 10.5999 177.4 11.7999C177.7 13.4999 178 15.1999 177.9 17.7999C177.9 19.0999 177.6 19.5999 177.4 20.1999C177.3 20.3999 177.2 20.5999 177.2 20.6999C177.2 20.7999 177 20.9999 176.9 21.1999L176.5 21.8C174.6 24.7 174 25.8 174 27.3C174.2 38.9 176.9 48.3 179.8 58.3C180.4 60.3 180.9 62.3 181.5 64.3C184 73.3 186.8 82.4 189.4 91.2L189.8 92.5C191.2 97.3 192.7 102.2 194.2 107.1C196.2 113.9 197.6 119.9 198.6 125.5L198.7 126.2H206.8L206.6 125.3C205.6 119.1 204 112.4 201.8 104.9C200.3 99.7999 198.7 94.6 197.2 89.5L197.1 89.2C194.4 80.4 191.7 71.4 189.2 62.3C188.6 60.2 188 58.1999 187.5 56.1999C184.7 46.5999 182.3 38.2999 182 28.1999C182.3 27.6999 182.8 26.9 183.2 26.3C183.9 25.2 184.3 24.5999 184.5 24.0999L184.6 23.8C185.1 22.9 185.8 21.3 185.9 18.2C186 14.8 185.6 12.5 185.3 10.7C185.2 10.3 185.1 9.69995 185.1 9.09995C256.1 21.5999 309.5 85.3 309.5 157.5C309.5 221.4 267.3 280.1 206.7 300.4L207.9 226.8V226H199.9L198.5 311.3L203.7 309.8C270.7 290.1 317.5 227.4 317.5 157.6C317.6 118.8 303.8 81.1999 278.8 51.6999Z" fill="white"/>
</svg>
