<svg width="391" height="391" viewBox="0 0 391 391" fill="none" xmlns="http://www.w3.org/2000/svg">
<g clip-path="url(#clip0)">
<path d="M325.756 168.459L188.121 78.0648C177.277 70.943 162.667 73.9699 155.545 84.8136L123.262 133.969L142.924 146.883L162.294 117.389L194.221 205.902C195.086 208.294 196.703 210.343 198.83 211.739C200.957 213.136 203.479 213.806 206.018 213.65L299.93 207.783L241.819 296.263L163.17 244.61L150.257 264.272L228.906 315.926C239.749 323.047 254.36 320.021 261.481 309.177L332.505 201.035C339.627 190.191 336.6 175.581 325.756 168.459ZM213.356 189.622L181.755 102.027L306.296 183.821L213.356 189.622Z" fill="#3F3F3F"/>
<path d="M97.1429 130.887L165.961 176.084L153.047 195.746L84.2295 150.549L97.1429 130.887ZM97.435 173.293L156.422 212.034L143.508 231.696L84.5216 192.956L97.435 173.293ZM107.558 222.157L146.883 247.984L133.969 267.646L94.6447 241.819L107.558 222.157Z" fill="#3F3F3F"/>
</g>
<defs>
<clipPath id="clip0">
<rect width="282.283" height="282.283" fill="white" transform="translate(154.961) rotate(33.2955)"/>
</clipPath>
</defs>
</svg>
