<svg width="79" height="79" viewBox="0 0 79 79" fill="none" xmlns="http://www.w3.org/2000/svg">
<path d="M72.7837 21.2901L48.0962 7.71195C47.7317 7.51141 47.3223 7.40625 46.9063 7.40625C46.4902 7.40625 46.0809 7.51141 45.7163 7.71195L21.0288 21.2901C20.6418 21.5032 20.319 21.8163 20.0942 22.1967C19.8694 22.5771 19.7508 23.0108 19.7508 23.4527C19.7508 23.8946 19.8694 24.3283 20.0942 24.7087C20.319 25.0891 20.6418 25.4022 21.0288 25.6153L44.4375 38.4899V64.9524L36.9424 60.8296L34.5625 65.1524L45.7163 71.2872C46.0807 71.4882 46.4901 71.5936 46.9063 71.5936C47.3224 71.5936 47.7318 71.4882 48.0962 71.2872L72.7837 57.7091C73.1709 57.4961 73.4939 57.183 73.7188 56.8026C73.9437 56.4222 74.0625 55.9884 74.0625 55.5465V23.4527C74.0625 23.0108 73.9437 22.577 73.7188 22.1965C73.4939 21.8161 73.1709 21.5031 72.7837 21.2901ZM46.9063 12.6939L66.4711 23.4527L46.9063 34.2115L27.3414 23.4527L46.9063 12.6939ZM69.125 54.0874L49.375 64.9499V38.4874L69.125 27.6249V54.0874Z" fill="#FFD357"/>
<path d="M24.6875 39.5H4.9375V34.5625H24.6875V39.5Z" fill="#FFD357"/>
<path d="M29.625 59.25H9.875V54.3125H29.625V59.25Z" fill="#FFD357"/>
<path d="M34.5625 49.375H14.8125V44.4375H34.5625V49.375Z" fill="#FFD357"/>
</svg>
