<svg width="120" height="18" viewBox="0 0 120 18" fill="none" xmlns="http://www.w3.org/2000/svg">
<path d="M44.625 17.9143H55.6313L59.8125 12.2477H48.8062L44.625 17.9143ZM0 14.4806V15.6814H15.3375L16.2188 14.4806H0ZM32.4187 12.2477C30.7875 12.2477 31.2938 11.5722 31.5563 11.2157C32.0812 10.5026 32.9813 9.26423 33.5062 8.56997C34.0312 7.87571 34.0312 7.46291 32.9812 7.46291H23.4188L15.7125 17.9331H34.4812C40.6875 17.9331 44.1375 13.7113 45.2063 12.2477H32.4187ZM91.95 10.953L99.3188 0.933105H87.6562L80.2875 10.953H91.95ZM17.8688 12.2477H0V13.4486H16.9875L17.8688 12.2477ZM38.6813 7.25651C38.1562 7.96953 37.275 9.20794 36.75 9.92097C36.4875 10.2962 35.9813 10.953 37.6125 10.953H46.1625C46.1625 10.953 47.5313 9.07659 48.6938 7.50043C50.2688 5.36136 48.825 0.933105 43.2188 0.933105H21.1125L17.2875 6.14944H38.175C39.225 6.14944 39.2062 6.56224 38.6813 7.25651ZM0 17.9143H13.7062L14.5875 16.7135H0V17.9143ZM60.5625 17.9143H71.5688L75.75 12.2477H64.7437C64.725 12.2477 60.5625 17.9143 60.5625 17.9143ZM102.188 17.9331H120V16.7322H103.069L102.188 17.9331ZM106.369 12.2477L105.487 13.4486H120V12.2477H106.369ZM103.837 15.6814H120V14.4806H104.719L103.837 15.6814ZM73.05 0.933105L68.8313 6.67483H63.9187L68.1375 0.933105H57.1313L49.7625 10.953H76.6875L84.0562 0.933105H73.05ZM79.3313 12.2477C79.3313 12.2477 78.525 13.3547 78.1313 13.8801C76.7438 15.7565 77.9625 17.9331 82.4812 17.9331H100.163L104.344 12.2477H79.3313Z" fill="#876700"/>
</svg>
