<svg width="66" height="35" viewBox="0 0 66 35" fill="none" xmlns="http://www.w3.org/2000/svg">
<path d="M62.5259 18.9907L66 16.9839V6.28336L56.7413 0.936965L53.2685 2.94251L62.5259 8.28761V18.9907ZM37.0771 18.9868L33.6042 16.98V6.2795L42.8629 0.933105L46.3344 2.93993L37.0771 8.28504V18.9868ZM59.0646 25.0124V29.0261L49.8111 34.3764L40.5589 29.0184V25.006L49.8111 30.364L59.0646 25.0124Z" fill="#876700"/>
<path d="M39.3953 21.6693V9.62448L49.797 3.604L60.2141 9.62705V21.6667L49.806 27.6846L39.3953 21.6693ZM42.8668 10.2973L49.806 14.3109L56.7465 10.296L49.806 6.28106L42.8668 10.2973ZM48.6475 24.3309V16.3062L41.7083 12.2951V20.3224L48.6475 24.3309ZM57.8908 12.308L50.9503 16.3216L50.9554 24.3451L57.8959 20.334L57.8908 12.308Z" fill="#876700"/>
<path d="M0 6.30518H4.5709C7.83051 6.30518 9.77882 8.28756 9.77882 11.5847C9.77882 15.0747 7.80097 16.9542 4.5709 16.9542H0V6.30518ZM2.68295 14.6515H3.99295C6.0941 14.6078 7.09587 13.7034 7.09587 11.5692C7.09587 9.63188 5.88733 8.60788 3.99295 8.60788H2.68295V14.6515ZM11.1916 6.30518H16.4098C18.3889 6.30518 20.2525 7.21468 20.2525 9.73479C20.2525 12.3745 18.7485 13.4037 16.4098 13.4037H13.8797V16.9542H11.1916V6.30518ZM13.8797 11.3415H15.9962C16.8554 11.3415 17.5644 10.899 17.5644 9.92904C17.5644 8.93077 16.84 8.44193 15.9962 8.44193H13.8797V11.3415ZM21.7911 6.30518H26.3607C29.6267 6.30518 31.5737 8.28756 31.5737 11.5847C31.5737 15.0747 29.5959 16.9542 26.3607 16.9542H21.7911V6.30518ZM24.4779 14.6515H25.7892C27.889 14.6078 28.8921 13.7034 28.8921 11.5692C28.8921 9.63188 27.6771 8.60788 25.7892 8.60788H24.4779V14.6515Z" fill="#876700"/>
</svg>
