<svg width="85" height="26" viewBox="0 0 85 26" fill="none" xmlns="http://www.w3.org/2000/svg">
<path d="M77.8281 17.1465L84.907 9.31438H76.6195L73.7375 12.5571L70.7492 9.31438H54.9844V7.22233H62.4352V0.933105H42.3539V10.805H42.2875C41.0125 9.36668 39.432 8.86982 37.5859 8.86982C33.8141 8.86982 30.9719 11.4064 29.9758 14.7406C27.5852 6.9739 17.0398 7.20926 13.7859 12.9101V9.74587H6.50781V6.32013H14.4766V0.946182H0V25.0571H6.50781V14.9237H13.0023C12.8031 15.669 12.6969 16.4666 12.6969 17.3034C12.6969 26.8615 26.3234 29.2542 29.9891 20.4022H24.4109C22.4586 23.135 18.3281 21.5659 18.3281 18.4932H29.6836C30.175 22.4812 33.3227 25.9331 37.6656 25.9331C39.5383 25.9331 41.2516 25.0309 42.3008 23.5011H42.3672V25.0571H70.55L73.4852 21.7882L76.4469 25.0571H85L77.8281 17.1465ZM18.5008 14.976C19.3109 11.5372 24.0391 11.6287 24.6766 14.976H18.5008ZM38.8742 21.3698C34.2789 21.3698 34.3586 13.1585 38.8742 13.1585C43.2039 13.1585 43.4563 21.3698 38.8742 21.3698ZM61.1602 23.8672H48.6227V2.09681H61.2398V6.04555H53.7891V10.4781H61.1602V14.1522H53.7094V19.9969H61.1602V23.8672ZM55.0641 18.6632V15.4729H62.5148V9.71972L69.2484 17.1726L62.5148 24.6256V18.6632H55.0641ZM73.4719 20.01L70.0055 23.8672H64.9453L71.0016 17.1726L64.9453 10.4781H70.218L73.7508 14.3091L77.1508 10.4781H82.2641L76.2344 17.1465L82.3438 23.8672H76.9648L73.4719 20.01Z" fill="#876700"/>
</svg>
