<?xml version="1.0" encoding="utf-8"?>
<!-- Generator: Adobe Illustrator 24.2.1, SVG Export Plug-In . SVG Version: 6.00 Build 0)  -->
<svg version="1.1" xmlns="http://www.w3.org/2000/svg" xmlns:xlink="http://www.w3.org/1999/xlink" x="0px" y="0px"
	 viewBox="0 0 402.8 399.2" style="enable-background:new 0 0 402.8 399.2;" xml:space="preserve">
<style type="text/css">
	.st0{display:none;}
	.st1{fill:#401213;}
	.st2{fill:#132136;}
	.st3{fill:#FFFFFF;}
</style>
<g id="Layer_1">
</g>
<g id="Warstwa_1">
	<g>
		<g>
			<path fill="white" d="M156,191.2h2.3c0.4,0,0.7-0.1,1-0.2s0.5-0.3,0.7-0.5c0.2-0.2,0.2-0.5,0.2-0.8c0-0.5-0.2-0.9-0.5-1.1
				c-0.3-0.2-0.8-0.4-1.4-0.4h-1.5v9.1h1.8c0.5,0,0.9-0.1,1.2-0.2c0.4-0.1,0.6-0.3,0.9-0.6c0.2-0.3,0.3-0.6,0.3-1.1
				c0-0.3-0.1-0.6-0.2-0.8c-0.1-0.2-0.3-0.4-0.5-0.5c-0.2-0.1-0.5-0.2-0.8-0.3s-0.6-0.1-0.9-0.1H156v-1.9h3.1c0.7,0,1.4,0.1,2.1,0.2
				c0.7,0.2,1.3,0.4,1.8,0.7c0.5,0.3,1,0.8,1.3,1.3c0.3,0.5,0.5,1.1,0.5,1.9c0,1-0.2,1.7-0.7,2.3c-0.5,0.6-1.1,1-2,1.3
				c-0.8,0.3-1.8,0.4-3,0.4h-5.7v-14.5h5.3c1,0,1.9,0.1,2.7,0.4s1.4,0.7,1.8,1.2c0.4,0.5,0.7,1.2,0.7,2.1c0,0.8-0.2,1.4-0.7,1.9
				c-0.4,0.5-1.1,0.9-1.8,1.2s-1.7,0.4-2.7,0.4H156V191.2z"/>
			<path fill="white" d="M171.9,185.4v14.5h-3.5v-14.5H171.9z M170.6,185.4h3.1c1.2,0,2.3,0.2,3.1,0.6c0.8,0.4,1.5,1,1.9,1.7
				c0.4,0.7,0.6,1.5,0.6,2.5c0,0.9-0.2,1.7-0.6,2.5c-0.4,0.7-1.1,1.3-1.9,1.7c-0.8,0.4-1.9,0.6-3.1,0.6h-3.1v-2.7h2.8
				c0.5,0,0.9-0.1,1.2-0.2c0.3-0.1,0.6-0.4,0.8-0.6c0.2-0.3,0.3-0.6,0.3-1s-0.1-0.7-0.3-1c-0.2-0.3-0.4-0.5-0.8-0.7
				c-0.3-0.2-0.7-0.2-1.2-0.2h-2.8V185.4z M175.6,193.4l4.5,6.6h-4.1l-4.1-6.6H175.6z"/>
			<path fill="white" d="M182.8,189.6c0.4-0.9,0.9-1.7,1.6-2.4c0.7-0.7,1.5-1.2,2.5-1.6s2-0.5,3.1-0.5c1.1,0,2.2,0.2,3.1,0.5
				c0.9,0.4,1.8,0.9,2.5,1.6s1.3,1.5,1.6,2.4c0.4,0.9,0.6,1.9,0.6,3.1c0,1.1-0.2,2.1-0.6,3.1s-0.9,1.8-1.6,2.4
				c-0.7,0.7-1.5,1.2-2.5,1.6s-2,0.6-3.1,0.6c-1.1,0-2.2-0.2-3.1-0.6c-1-0.4-1.8-0.9-2.5-1.6c-0.7-0.7-1.2-1.5-1.6-2.4
				s-0.6-2-0.6-3.1C182.2,191.6,182.4,190.5,182.8,189.6z M186.4,195c0.3,0.7,0.8,1.2,1.4,1.5c0.6,0.4,1.3,0.6,2.2,0.6
				c0.8,0,1.5-0.2,2.1-0.6c0.6-0.4,1.1-0.9,1.4-1.5s0.5-1.4,0.5-2.3s-0.2-1.6-0.5-2.3c-0.3-0.7-0.8-1.2-1.4-1.5s-1.3-0.6-2.2-0.6
				c-0.8,0-1.6,0.2-2.2,0.6c-0.6,0.4-1.1,0.9-1.4,1.5c-0.3,0.7-0.5,1.4-0.5,2.3S186.1,194.3,186.4,195z"/>
			<path fill="white" d="M217,185.4h4.2l-6.3,15.4l-4.7-8.7l-4.7,8.7l-6.3-15.4h4.1l2.9,8.3l3.9-9l4,9L217,185.4z"/>
			<path fill="white" d="M225.4,195.4l0.2,0.8l-1.8,3.7h-4l7.6-15.4l7.6,15.4h-4l-1.7-3.6l0.1-0.9l-2.1-4.7L225.4,195.4z M223.9,194.5h7.2
				l0.2,2.7h-7.7L223.9,194.5z"/>
			<path fill="white" d="M241.1,185.4v14.5h-3.5v-14.5H241.1z M239.8,185.4h3.1c1.2,0,2.3,0.2,3.1,0.6c0.8,0.4,1.5,1,1.9,1.7
				c0.4,0.7,0.6,1.5,0.6,2.5c0,0.9-0.2,1.7-0.6,2.5c-0.4,0.7-1.1,1.3-1.9,1.7c-0.8,0.4-1.9,0.6-3.1,0.6h-3.1v-2.7h2.8
				c0.5,0,0.9-0.1,1.2-0.2c0.3-0.1,0.6-0.4,0.8-0.6s0.3-0.6,0.3-1s-0.1-0.7-0.3-1s-0.4-0.5-0.8-0.7c-0.3-0.2-0.7-0.2-1.2-0.2h-2.8
				V185.4z M244.9,193.4l4.5,6.6h-4.1l-4.1-6.6H244.9z"/>
		</g>
		<g>
			<path fill="white" d="M78.1,211.5l18.8,26l18.8-26v40.6h-6.6v-20.3l-12.2,16.8l-12.1-16.8v20.3h-6.7V211.5z"/>
			<path fill="white" d="M123.5,212.5h24.6v6.7h-18v9.8h15.9v6.7h-15.9v9.8h18v6.7h-24.6V212.5z"/>
			<path fill="white" d="M162.1,227.8v24.3h-6.7v-40.6l23.8,25.4v-24.4h6.7v40.7L162.1,227.8z"/>
			<path fill="white" d="M201.8,219.2h-10.2v-6.7h26.9v6.7h-10.1v32.9h-6.7V219.2z"/>
			<path fill="white" d="M243.3,219.2h-18.4v-6.7h30.1l-19.4,32.9h19.4v6.7h-31L243.3,219.2z"/>
			<path fill="white" d="M262,212.5h24.6v6.7h-18v9.8h15.9v6.7h-15.9v9.8h18v6.7H262V212.5z"/>
			<path fill="white" d="M300.9,227.8v24.3h-6.7v-40.6l23.8,25.4v-24.4h6.7v40.7L300.9,227.8z"/>
		</g>
		<g>
			<path fill="white" d="M183.6,65.1c-0.2-0.2-0.3-0.4-0.3-0.4c-0.1-0.2-0.2-0.4-0.3-0.6c-0.3-0.5-0.5-1-0.5-2.4c-0.1-2.6,0.2-4.3,0.5-6
				c0.2-1.2,0.5-3.9,0.6-4.7l0-0.3l0-0.3c0-0.7,0-1.5,0-1.6l-0.1-4.6l-0.9,0c-1.8,0-2.9,0-3.5,0.1c-37.3,2.9-71.9,21.2-97.5,51.4
				c-25,29.6-38.8,67.1-38.8,105.7c0,69.9,46.8,132.5,113.8,152.2l5.2,1.5l-1.4-85.3h-8l1.2,74.4C93.1,324,50.9,265.3,50.9,201.4
				c0-72.2,53.4-135.9,124.4-148.4c-0.1,0.5-0.2,1.1-0.2,1.6c-0.3,1.8-0.7,4.1-0.6,7.5c0.1,3,0.9,4.6,1.3,5.5l0.1,0.3
				c0.2,0.5,0.6,1,1.3,2.2c0.4,0.6,0.9,1.4,1.2,1.9c-0.3,10.1-2.7,18.4-5.5,28.1c-0.6,2-1.2,4-1.7,6.1c-2.5,9.1-5.3,18.1-7.9,26.9
				l-0.1,0.4c-1.5,5-3.1,10.2-4.6,15.3c-2.2,7.5-3.8,14.2-4.8,20.4l-0.2,0.9h8.1l0.1-0.7c1-5.6,2.4-11.6,4.4-18.4
				c1.4-4.9,2.9-9.8,4.4-14.6l0.4-1.3c2.7-8.8,5.4-17.9,7.9-26.9c0.6-2.1,1.2-4.1,1.7-6c2.9-10,5.6-19.4,5.8-31
				c0-1.5-0.6-2.6-2.5-5.5L183.6,65.1z"/>
			<path fill="white" d="M320.8,95.7c-25.6-30.2-60.2-48.5-97.5-51.4c-0.5,0-1.7-0.1-3.5-0.1l-0.9,0l-0.1,4.6c0,0.1,0,0.9,0,1.6l0,0.4l0,0.3
				c0.1,0.8,0.4,3.5,0.6,4.7c0.3,1.7,0.6,3.4,0.5,6c0,1.3-0.3,1.8-0.5,2.4c-0.1,0.2-0.2,0.4-0.2,0.5c0,0.1-0.2,0.3-0.3,0.5l-0.4,0.6
				c-1.9,2.9-2.5,4-2.5,5.5c0.2,11.6,2.9,21,5.8,31c0.6,2,1.1,4,1.7,6c2.5,9,5.3,18.1,7.9,26.9l0.4,1.3c1.4,4.8,2.9,9.7,4.4,14.6
				c2,6.8,3.4,12.8,4.4,18.4l0.1,0.7h8.1l-0.2-0.9c-1-6.2-2.6-12.9-4.8-20.4c-1.5-5.1-3.1-10.3-4.6-15.4l-0.1-0.3
				c-2.7-8.8-5.4-17.8-7.9-26.9c-0.6-2.1-1.2-4.1-1.7-6.1c-2.8-9.6-5.2-17.9-5.5-28c0.3-0.5,0.8-1.3,1.2-1.9
				c0.7-1.1,1.1-1.7,1.3-2.2l0.1-0.3c0.5-0.9,1.2-2.5,1.3-5.6c0.1-3.4-0.3-5.7-0.6-7.5c-0.1-0.4-0.2-1-0.2-1.6
				c71,12.5,124.4,76.2,124.4,148.4c0,63.9-42.2,122.6-102.8,142.9l1.2-73.6l0-0.8h-8l-1.4,85.3l5.2-1.5
				c67-19.7,113.8-82.4,113.8-152.2C359.6,162.8,345.8,125.2,320.8,95.7z"/>
		</g>
	</g>
</g>
<g id="Layer_5">
</g>
</svg>
