<svg width="301" height="68" viewBox="0 0 301 68" fill="none" xmlns="http://www.w3.org/2000/svg">
<path d="M42.6235 35.8615L68.152 61.276L61.4279 68L36.0134 42.6994L23.2492 55.2358L16.5251 48.5117L29.1754 35.7475L0 7.1419L6.72402 0.417877L36.0134 29.0235L47.8659 17.3989L54.5899 24.1229L42.6235 35.8615Z" fill="#FFD357"/>
<path d="M83.7653 35.8615C83.7653 46.1184 75.5598 54.324 65.3028 54.324H47.8659V17.3989H65.3028C76.5855 17.3989 83.7653 25.7184 83.7653 35.8615ZM74.876 35.8615C74.876 30.3911 70.7732 26.2883 66.1005 26.2883C63.7072 26.2883 56.6413 26.2883 56.6413 26.2883V45.4346H66.1005C70.7732 45.3207 74.876 41.3319 74.876 35.8615Z" fill="#FFD357"/>
<path d="M101.621 28.206H105.235C104.897 24.202 102.505 22.876 98.8906 22.876C94.7826 22.876 92.4946 24.826 92.4946 28.57C92.4946 32.704 94.8866 33.822 97.1486 34.108C99.2806 34.394 102.089 34.394 102.089 36.76C102.089 39.022 101.101 39.932 98.9426 39.932C96.6546 39.932 95.9786 39.1 95.9006 37.566H92.2866C92.2866 40.79 93.8726 43.208 98.8646 43.208C103.675 43.208 105.677 41.258 105.677 36.63C105.677 32.626 103.467 31.69 101.153 31.326C98.1106 30.858 96.1086 31.066 96.1086 28.544C96.1086 26.646 96.9146 26.022 98.8906 26.022C100.633 26.022 101.517 26.516 101.621 28.206ZM108.016 37.384C108.016 41.934 109.706 43.494 114.23 43V39.88C111.838 40.166 111.578 39.022 111.578 37.332V30.858H114.178V27.608H111.578V24.618L108.016 25.008V37.384ZM124.291 27.582C122.393 27.27 120.651 28.206 120.027 29.272L119.871 27.66H116.595V43.026H120.157V34.238C120.157 31.95 121.977 31.04 124.291 31.352V27.582ZM134.409 38.294C134.409 39.36 133.707 39.958 132.017 39.958C130.561 39.958 129.599 39.49 129.599 37.02V36.63H137.919V33.588C137.919 29.454 135.995 27.608 131.965 27.608C127.935 27.608 126.011 29.74 126.011 33.588V37.072C126.011 41.206 127.935 43.052 131.965 43.052C135.995 43.052 137.919 41.518 137.919 38.294H134.409ZM132.069 30.702C134.097 30.702 134.461 31.768 134.461 33.692H129.599C129.599 31.846 129.963 30.702 132.069 30.702ZM148.123 22.72C143.391 22.122 140.843 24.67 140.843 28.18V43.026H144.405V32.314H147.707V29.038H144.405V28.232C144.405 26.516 145.731 25.476 148.123 25.866V22.72ZM157.705 36.89C157.549 38.424 156.977 39.932 154.897 39.932C153.675 39.932 152.791 39.594 152.791 38.58C152.791 37.358 154.065 36.526 157.705 36.89ZM153.285 32.938C153.259 31.3 153.831 30.754 155.391 30.754C157.263 30.754 157.705 31.898 157.705 34.186C152.427 33.822 149.411 35.252 149.411 38.866C149.411 41.752 151.309 43.208 153.831 43.208C155.547 43.208 157.003 42.428 157.861 41.232L158.199 43H161.111V33.562C161.111 29.584 159.369 27.582 155.365 27.582C151.699 27.582 149.645 29.116 149.879 32.938H153.285ZM178.893 38.268L182.871 30.208L182.455 35.928V43H186.043V22.98H182.585L178.477 31.846L174.395 22.98H170.937V43H174.525V35.928L174.109 30.208L178.087 38.268H178.893ZM197.301 38.294C197.301 39.36 196.599 39.958 194.909 39.958C193.453 39.958 192.491 39.49 192.491 37.02V36.63H200.811V33.588C200.811 29.454 198.887 27.608 194.857 27.608C190.827 27.608 188.903 29.74 188.903 33.588V37.072C188.903 41.206 190.827 43.052 194.857 43.052C198.887 43.052 200.811 41.518 200.811 38.294H197.301ZM194.961 30.702C196.989 30.702 197.353 31.768 197.353 33.692H192.491C192.491 31.846 192.855 30.702 194.961 30.702ZM204.255 43H207.817V33.432C207.817 31.456 208.909 30.78 210.287 30.78C211.769 30.78 212.601 31.586 212.601 33.562V43H216.137V33.536C216.137 28.856 213.667 27.53 211.145 27.556C209.845 27.556 208.493 28.076 207.531 29.22L207.349 27.66H204.255V43ZM219.277 37.384C219.277 41.934 220.967 43.494 225.491 43V39.88C223.099 40.166 222.839 39.022 222.839 37.332V30.858H225.439V27.608H222.839V24.618L219.277 25.008V37.384ZM227.103 43H239.037V39.672H232.433L239.037 28.128V27.686H227.779V30.806H233.733L227.103 42.584V43ZM249.098 38.294C249.098 39.36 248.396 39.958 246.706 39.958C245.25 39.958 244.288 39.49 244.288 37.02V36.63H252.608V33.588C252.608 29.454 250.684 27.608 246.654 27.608C242.624 27.608 240.7 29.74 240.7 33.588V37.072C240.7 41.206 242.624 43.052 246.654 43.052C250.684 43.052 252.608 41.518 252.608 38.294H249.098ZM246.758 30.702C248.786 30.702 249.15 31.768 249.15 33.692H244.288C244.288 31.846 244.652 30.702 246.758 30.702ZM256.052 43H259.614V33.432C259.614 31.456 260.706 30.78 262.084 30.78C263.566 30.78 264.398 31.586 264.398 33.562V43H267.934V33.536C267.934 28.856 265.464 27.53 262.942 27.556C261.642 27.556 260.29 28.076 259.328 29.22L259.146 27.66H256.052V43ZM278.97 36.89C278.814 38.424 278.242 39.932 276.162 39.932C274.94 39.932 274.056 39.594 274.056 38.58C274.056 37.358 275.33 36.526 278.97 36.89ZM274.55 32.938C274.524 31.3 275.096 30.754 276.656 30.754C278.528 30.754 278.97 31.898 278.97 34.186C273.692 33.822 270.676 35.252 270.676 38.866C270.676 41.752 272.574 43.208 275.096 43.208C276.812 43.208 278.268 42.428 279.126 41.232L279.464 43H282.376V33.562C282.376 29.584 280.634 27.582 276.63 27.582C272.964 27.582 270.91 29.116 271.144 32.938H274.55Z" fill="#3F3F3F"/>
<path d="M290.656 18.262H284.272V19.984H286.512V29H288.43V19.984H290.656V18.262ZM296.028 26.452L298.17 22.112L297.946 25.192V29H299.878V18.22H298.016L295.804 22.994L293.606 18.22H291.744V29H293.676V25.192L293.452 22.112L295.594 26.452H296.028Z" fill="#3F3F3F"/>
</svg>
