<svg width="732" height="388" viewBox="0 0 732 388" fill="none" xmlns="http://www.w3.org/2000/svg">
<path d="M524.319 87.3026L731.803 320.861V381.696L545.225 381.751L465.173 291.416V204.977L465.312 200.672L572.364 321.44L651.428 321.417L501.832 153.028C463.523 196.7 425.56 239.969 387.22 283.679L380.247 291.569L380.277 291.585L344.623 332.232L289.464 270.657L185.321 387.891H0V325.636L287.489 -3.05176e-05L380.64 105.108V187.751L380.447 195.427L287.575 91.0213L78.9174 327.365H158.221L289.164 179.96L344.12 241.32C396.84 181.24 449.328 121.4 501.647 61.768L524.319 87.3026Z" fill="white"/>
</svg>
