<svg width="7314" height="549" viewBox="0 0 7314 549" fill="none" xmlns="http://www.w3.org/2000/svg">
<path d="M2.33183 549H170.537V380.079H2.33183V549Z" fill="#64C881"/>
<path d="M380.793 168.922H548.997V0.000491006H380.793V168.922Z" fill="#64C881"/>
<path d="M212.588 211.157H548.997V549H212.588V211.157Z" fill="#FBC60D"/>
<path d="M338.74 337.846V0.00223657H2.33174V337.846H338.74Z" fill="#97DDF5"/>
<path d="M338.74 337.846V211.156H212.588V337.846H338.74Z" fill="#64C881"/>
<path d="M296.688 295.614H44.3842V42.2342H296.688V295.614ZM-0.000243734 337.846H338.745V0.00223657H-0.000243734V337.846Z" fill="#231F20"/>
<path d="M506.945 506.768H254.641V253.388H506.945V506.768ZM210.252 549H548.997V211.157H210.252V549Z" fill="#231F20"/>
<path d="M336.403 253.391V211.159H212.588V253.391H336.403Z" fill="#231F20"/>
<path d="M254.641 337.846V211.156H212.588V337.846H254.641Z" fill="#231F20"/>
<path d="M128.487 506.768H86.4338H44.3869L44.3869 422.31H86.4338H128.487V506.768ZM2.33402 549H170.539V380.079H2.33402V549Z" fill="#231F20"/>
<path d="M506.448 126.817H463.899H421.356V42.274L463.899 42.274H506.448V126.817ZM378.808 169.091H548.997V-0.000176783H378.808V169.091Z" fill="#231F20"/>
<path d="M972.65 465.003C952.246 465.003 934.695 457.649 920.02 442.917C905.332 428.2 897.999 410.598 897.999 390.133V360.508H968.894V374.509C968.894 384.568 969.512 390.224 970.772 391.478C972.023 392.742 977.663 393.362 987.691 393.362H1194.46C1204.48 393.362 1210.12 392.742 1211.38 391.478C1212.63 390.224 1213.26 384.568 1213.26 374.509V325.493C1213.26 315.444 1212.63 309.874 1211.38 308.797C1210.12 307.718 1204.48 307.18 1194.46 307.18H972.65C952.246 307.18 934.695 299.731 920.02 284.826C905.332 269.928 897.999 252.236 897.999 231.771V152.05C897.999 131.582 905.332 113.993 920.02 99.2618C934.695 84.5447 952.246 77.1808 972.65 77.1808H1210.04C1230.45 77.1808 1247.98 84.5447 1262.67 99.2618C1277.35 113.993 1284.69 131.582 1284.69 152.05V181.672H1213.26V167.67C1213.26 157.622 1212.63 151.965 1211.38 150.702C1210.12 149.451 1204.48 148.818 1194.46 148.818H987.691C977.663 148.818 972.023 149.451 970.772 150.702C969.512 151.965 968.894 157.622 968.894 167.67V216.687C968.894 226.744 969.512 232.309 970.772 233.383C972.023 234.466 977.663 235.005 987.691 235.005L1210.04 235.005C1230.45 235.005 1247.98 242.458 1262.67 257.357C1277.35 272.26 1284.69 289.944 1284.69 310.414V390.133C1284.69 410.598 1277.35 428.2 1262.67 442.917C1247.98 457.649 1230.45 465.003 1210.04 465.003H972.65Z" fill="#231F20"/>
<path d="M1481.79 465.003V148.818H1323.89V77.1808H1710.59V148.818H1553.22V465.003H1481.79Z" fill="#231F20"/>
<path d="M1840.01 260.318H2046.79C2056.46 260.318 2061.91 259.779 2063.16 258.702C2064.41 257.624 2065.05 252.059 2065.05 242V167.669C2065.05 157.621 2064.41 151.964 2063.16 150.701C2061.91 149.451 2056.46 148.817 2046.79 148.817H1840.01C1829.98 148.817 1824.34 149.451 1823.09 150.701C1821.84 151.964 1821.21 157.621 1821.21 167.669V242C1821.21 252.059 1821.84 257.624 1823.09 258.702C1824.34 259.779 1829.98 260.318 1840.01 260.318ZM1750.32 465.003V77.7146H2061.82C2082.58 77.7146 2100.31 85.1737 2114.99 100.067C2129.67 114.975 2137.01 132.483 2137.01 152.59V257.085C2137.01 277.554 2129.67 295.152 2114.99 309.873C2100.31 324.6 2082.58 331.954 2061.82 331.954H2040.88L2136.47 445.073V465.003H2059.14L1947.97 331.954L1821.21 332.494V465.003H1750.32Z" fill="#231F20"/>
<path d="M2195.01 465.003V77.1808H2551.1V148.818H2266.45V235.005L2495.24 235.005V307.18H2266.45V393.362H2551.1V465.003H2195.01Z" fill="#231F20"/>
<path d="M2606.41 465.003V77.1808H2962.49V148.818H2677.84V235.005L2906.63 235.005V307.18H2677.84V465.003H2606.41Z" fill="#231F20"/>
<path d="M3065.6 263.546H3309.97V167.669C3309.97 157.621 3309.25 151.964 3307.82 150.701C3306.38 149.451 3300.84 148.817 3291.17 148.817H3084.4C3074.37 148.817 3068.73 149.451 3067.48 150.701C3066.22 151.964 3065.6 157.621 3065.6 167.669V263.546ZM2994.71 465.003V152.05C2994.71 131.582 3002.04 113.988 3016.73 99.2607C3031.4 84.5437 3048.95 77.1808 3069.36 77.1808H3306.21C3326.97 77.1808 3344.69 84.5437 3359.38 99.2607C3374.05 113.988 3381.4 131.582 3381.4 152.05V465.003H3309.97V334.649H3065.6V465.003H2994.71Z" fill="#231F20"/>
<path d="M3606.97 465.003V77.1808H3684.85L3825.02 244.695L3964.66 77.1808H4043.08V465.003H3971.64V180.598L3825.02 355.658L3677.86 181.138V465.003H3606.97Z" fill="#231F20"/>
<path d="M4106.45 465.003V77.1808H4462.53V148.818H4177.87V235.005L4406.67 235.005V307.18H4177.87V393.362H4462.53V465.003H4106.45Z" fill="#231F20"/>
<path d="M4516.76 465.003V77.1808H4594.64L4832.03 360.508V77.1808H4903.46V465.003H4825.58L4587.66 181.138V465.003H4516.76Z" fill="#231F20"/>
<path d="M5102.17 465.003V148.818H4944.27V77.1808H5330.96V148.818H5173.6V465.003H5102.17Z" fill="#231F20"/>
<path d="M5368.54 465.003V387.439L5651.58 148.818H5368.54V77.1808H5755.24V154.74L5472.21 393.362H5755.24V465.003H5368.54Z" fill="#231F20"/>
<path d="M5813.24 465.003V77.1808H6169.32V148.818H5884.67V235.005L6113.47 235.005V307.18H5884.67V393.362H6169.32V465.003H5813.24Z" fill="#231F20"/>
<path d="M6223.56 465.003V77.1808H6301.44L6538.83 360.508V77.1808H6610.26V465.003H6532.37L6294.46 181.138V465.003H6223.56Z" fill="#231F20"/>
<path d="M6742.36 263.546H6986.73V167.669C6986.73 157.621 6986.01 151.964 6984.58 150.701C6983.15 149.451 6977.6 148.817 6967.93 148.817H6761.16C6751.14 148.817 6745.49 149.451 6744.25 150.701C6742.98 151.964 6742.36 157.621 6742.36 167.669V263.546ZM6671.46 465.003V152.05C6671.46 131.582 6678.8 113.988 6693.49 99.2607C6708.17 84.5437 6725.71 77.1808 6746.12 77.1808H6982.97C7003.74 77.1808 7021.45 84.5437 7036.15 99.2607C7050.82 113.988 7058.16 131.582 7058.16 152.05V465.003H6986.73V334.649H6742.36V465.003H6671.46Z" fill="#231F20"/>
<path d="M7198.87 106.782V72.6499H7181.83V64.9195H7223.57V72.6499H7206.58V106.782H7198.87Z" fill="#231F20"/>
<path d="M7227.91 106.782V64.9195H7236.32L7251.45 82.9991L7266.53 64.9195H7274.99V106.782H7267.28V76.0793L7251.45 94.9781L7235.56 76.1407V106.782H7227.91Z" fill="#231F20"/>
<path d="M7228.41 -0.000402138C7181.14 -0.000402138 7142.81 38.4334 7142.81 85.8432C7142.81 133.253 7181.14 171.687 7228.41 171.687C7275.68 171.687 7314 133.253 7314 85.8432C7314 38.4334 7275.68 -0.000402138 7228.41 -0.000402138ZM7228.41 19.0757C7265.12 19.0757 7294.98 49.0254 7294.98 85.8432C7294.98 122.661 7265.12 152.61 7228.41 152.61C7191.7 152.61 7161.83 122.661 7161.83 85.8432C7161.83 49.0254 7191.7 19.0757 7228.41 19.0757Z" fill="#231F20"/>
</svg>
