<svg width="187" height="43" viewBox="0 0 187 43" fill="none" xmlns="http://www.w3.org/2000/svg">
<path fill-rule="evenodd" clip-rule="evenodd" d="M110.084 22.2696V41.5469H101.866V39.0841L101.548 39.4177L101.213 39.7513L100.84 40.0844L100.449 40.3995L100.02 40.6961L99.5544 40.9738L99.0699 41.2519L98.5481 41.4927L97.9888 41.7334L97.4112 41.9368L96.7774 42.1036L96.1254 42.2699L95.4358 42.3813L94.709 42.4741L93.9259 42.5296L93.1247 42.5485L92.2305 42.5296L91.3734 42.4741L90.5722 42.3628L89.7891 42.2334L89.0437 42.0666L88.3355 41.8632L87.6831 41.641L87.0493 41.3633L86.4341 41.0852L85.8752 40.7516L85.3344 40.4184L84.8312 40.0479L84.3653 39.6592L83.918 39.2517L83.4892 38.8076L83.0981 38.3631L82.7438 37.9001L82.4085 37.4187L82.0918 36.9372L81.7933 36.4368L81.5324 35.9184L81.2716 35.3995L81.0479 34.8626L80.8428 34.3442L80.6564 33.8068L80.4885 33.2695L80.3397 32.7326L80.2095 32.1952L80.0974 31.6579L79.9854 31.121L79.8919 30.6025L79.8175 30.0837L79.6125 30.7504L79.3888 31.4167L79.1279 32.065L78.848 32.6944L78.5499 33.3241L78.2142 33.935L77.8603 34.5274L77.4878 35.1013L77.0777 35.6571L76.668 36.2125L76.2206 36.7314L75.7547 37.2498L75.2888 37.7313L74.7856 38.2128L74.2635 38.6573L73.7231 39.0833L73.1637 39.4908L72.5862 39.8794L72.0086 40.2496L71.4124 40.5831L70.779 40.8978L70.1452 41.1944L69.5119 41.4721L68.8409 41.7129L68.1699 41.9351L67.4989 42.1204L66.8092 42.2872L66.101 42.4162L65.3928 42.5275L64.666 42.6019L63.9392 42.6388L63.1938 42.6573L62.3181 42.6388L61.442 42.5649L60.5846 42.4536L59.7275 42.3057L58.9077 42.1204L58.0879 41.8982L57.2866 41.6204L56.5036 41.3238L55.7396 40.9722L55.0127 40.602L54.2859 40.1945L53.5777 39.7504L52.9067 39.2686L52.2543 38.7686L51.6395 38.2317L51.0434 37.6578L50.4658 37.0654L49.925 36.4541L49.4033 35.8062L48.9187 35.1395L48.4714 34.4358L48.0613 33.7321L47.6888 32.9914L47.3349 32.2322L47.0178 31.4541L46.7569 30.658L46.5146 29.8433L46.3281 29.0102L46.1789 28.1771L46.0669 27.3255L45.9924 26.455L45.9738 25.566L45.9924 24.9736L46.011 24.3997L46.0669 23.8262L46.1227 23.2704L46.2161 22.6965L46.3091 22.1406L46.4398 21.6037L46.57 21.0483L46.7379 20.5295L46.9057 19.9925L47.0918 19.4737L47.2968 18.9552L47.5205 18.4553L47.7628 17.9553L48.0236 17.4738L48.2845 16.9924H48.0236L47.8748 17.0109H47.7446L47.6143 17.0293L47.4651 17.0478H47.167L46.4774 17.1218L45.844 17.2701L45.2288 17.4738L44.6513 17.77L44.1105 18.1036L43.6073 18.5107L43.1414 18.9552L42.7313 19.4737L42.3398 20.0295L42.0226 20.6219L41.7432 21.2517L41.5009 21.9369L41.3144 22.6406L41.1842 23.3813L41.0912 24.1405L41.0726 24.9185V41.9548H33.2657V22.6402L33.3029 22.1029L33.3401 21.5655L33.4145 21.0101L33.4894 20.4362L33.6014 19.8623L33.7316 19.2695L33.8991 18.6771L34.0855 18.0847L34.2906 17.4734L34.5329 16.881L34.8124 16.2887L35.1105 15.6963L35.4462 15.1039L35.8001 14.5481L36.2102 13.9742L36.6389 13.4372L37.1235 12.9184L37.6266 12.4184L38.186 11.9369L38.7635 11.474L39.3973 11.048L40.0869 10.6408L40.7952 10.2703L41.5592 9.93712L42.379 9.64093L43.2365 9.38171L44.1494 9.17794L45.0998 8.99308L46.1061 8.88175L47.1682 8.78891L48.2866 8.77042H50.1127V14.4737L50.4108 14.122L50.7275 13.7889L51.0446 13.4738L51.3613 13.1587L51.697 12.844L52.0509 12.5478L52.3866 12.2516L52.7591 11.9739L53.113 11.6962L53.5045 11.437L53.877 11.1963L54.2681 10.9555L54.6597 10.7148L55.0698 10.4925L55.4799 10.2888L55.89 10.085L56.3002 9.89974L56.7289 9.71446L57.1576 9.54767L57.605 9.39978L58.0523 9.25189L58.4996 9.12248L58.947 8.99308L59.3943 8.88175L59.8602 8.78891L60.3258 8.71496L60.7917 8.64102L61.2763 8.58515L61.7422 8.52969L62.2267 8.49271L62.7113 8.47423H63.1958L63.904 8.49271L64.6123 8.52969L65.3019 8.60363L65.9915 8.69648L66.6625 8.82588L67.3335 8.97418L67.9859 9.14097L68.6379 9.34473L69.2717 9.56739L69.8864 9.80813L70.5012 10.0858L71.0978 10.3635L71.694 10.6786L72.2529 11.0303L72.8123 11.3819L73.3527 11.7521L73.8744 12.1596L74.3776 12.5667L74.8807 12.9927L75.3462 13.4557L75.8122 13.9187L76.2409 14.4187L76.6696 14.9186L77.0607 15.4375L77.4523 15.9744L77.8062 16.5302L78.1419 17.086L78.4776 17.6599L78.7571 18.2523L79.0365 18.8632L79.2974 19.4741L79.5211 20.1039V1.41856L87.6277 1.3631V8.71496H99.499V16.7516H87.6273V26.6218L87.6645 27.6217L87.7765 28.5476L87.9816 29.3993L88.2239 30.1773L88.5596 30.8995L88.9321 31.5289L89.3608 32.1213L89.8454 32.6216L90.3671 33.0661L90.9265 33.4548L91.5413 33.7699L92.156 34.0291L92.827 34.2324L93.498 34.3807L94.1877 34.4732L94.8954 34.4921L95.8273 34.4177L96.6848 34.2324L97.4674 33.9362L98.157 33.5472L98.7722 33.0661L99.3126 32.5103L99.7971 31.9179L100.226 31.2512L100.58 30.566L100.897 29.8622L101.158 29.14L101.362 28.4178L101.549 27.7326L101.679 27.0659L101.791 26.4365L101.866 25.8626V0.714844H110.085V10.8257L110.513 10.5295L110.96 10.2518L111.408 9.97409L111.874 9.69639L112.339 9.45565L112.824 9.21492L113.309 8.99267L113.812 8.78891L114.334 8.60363L114.837 8.43725L115.359 8.28895L115.9 8.15955L116.44 8.06711L116.981 7.99276L117.521 7.95578L118.081 7.9373L118.77 7.95578L119.46 8.01124L120.131 8.10409L120.783 8.23349L121.416 8.38179L122.031 8.58556L122.646 8.78932L123.224 9.04854L123.801 9.30776L124.342 9.60437L124.882 9.93794L125.386 10.2711L125.87 10.6232L126.355 10.9933L126.802 11.4004L127.231 11.7895L127.622 12.2155L128.013 12.6415L128.367 13.086L128.703 13.5305L129.019 13.975L129.318 14.438L129.579 14.9009L129.821 15.3639L130.026 15.8269L130.212 16.2714L130.361 16.7344L130.492 17.1789L130.604 17.6234L130.679 18.0494L130.716 18.4754L130.734 18.8829V41.3078H122.926V40.4558L122.944 40.0852V38.1963L122.963 37.6229V35.0676L122.982 34.3824V27.5103L122.963 26.918V25.8252L122.944 25.3433V24.8992L122.926 24.5106L122.888 23.7695L122.851 23.0288L122.776 22.3062L122.664 21.6029L122.534 20.9362L122.348 20.2879L122.106 19.677L121.826 19.1031L121.472 18.5847L121.062 18.1036L120.578 17.6961L120.018 17.326L119.385 17.0482L118.658 16.8256L117.838 16.6962L116.906 16.6407L116.086 16.6777L115.341 16.7886L114.651 16.9739L114.018 17.2146L113.44 17.5108L112.918 17.8625L112.452 18.2515L112.024 18.6775L111.651 19.122L111.315 19.5846L111.017 20.0476L110.775 20.529L110.551 20.992L110.365 21.4365L110.216 21.8625L110.084 22.2696ZM63.1768 34.5467L64.0897 34.5097L64.9843 34.3618L65.8604 34.1396L66.6803 33.843L67.4629 33.4728L68.2083 33.0284L68.8979 32.5099L69.5499 31.936L70.1275 31.3066L70.6492 30.6214L71.0965 29.8803L71.4691 29.1026L71.7671 28.288L71.9916 27.4175L72.1405 26.5289L72.1777 25.6214L72.1405 24.714L71.9916 23.8254L71.768 22.9734L71.4699 22.1402L71.0974 21.3626L70.65 20.6404L70.1283 19.9371L69.5507 19.3073L68.8987 18.7334L68.2091 18.2149L67.4637 17.7704L66.6811 17.4003L65.8612 17.1041L64.9852 16.8819L64.0905 16.734L63.1776 16.697L62.2458 16.734L61.3511 16.8819L60.475 17.1041L59.6366 17.4003L58.8535 17.7704L58.1081 18.2149L57.3999 18.7334L56.7661 19.3073L56.1699 19.9371L55.6668 20.6404L55.2009 21.3626L54.8283 22.1402L54.5303 22.9734L54.3066 23.8254L54.1578 24.714L54.1205 25.6214L54.1578 26.5289L54.3066 27.4175L54.5303 28.288L54.8283 29.1026L55.2009 29.8803L55.6668 30.6214L56.1699 31.3066L56.7661 31.936L57.3999 32.5099L58.1081 33.0284L58.8535 33.4728L59.6366 33.843L60.475 34.1396L61.3511 34.3618L62.2458 34.5097L63.1768 34.5467ZM139.137 27.2696L139.156 27.3625L139.231 27.6032L139.361 27.9918L139.548 28.4922L139.771 29.0842L140.088 29.7509L140.442 30.4546L140.89 31.1768L141.393 31.8994L141.97 32.6028L142.641 33.2695L143.386 33.8623L144.207 34.3623L145.138 34.7509L146.145 34.9916L147.244 35.0845L148.362 35.0101L149.369 34.8067L150.301 34.5101L151.139 34.103L151.885 33.6211L152.555 33.0842L153.133 32.5284L153.655 31.936L154.084 31.3436L154.456 30.7878L154.754 30.2505L154.997 29.769L155.183 29.3619L155.313 29.0653L155.388 28.8615L155.407 28.7876H163.513V28.8245L163.495 28.9359L163.476 29.1211L163.439 29.3619L163.382 29.6581L163.327 30.0097L163.233 30.4172L163.121 30.8617L162.972 31.3432L162.823 31.8617L162.618 32.399L162.395 32.9729L162.152 33.5653L161.854 34.1577L161.519 34.787L161.146 35.3979L160.736 36.0092L160.27 36.6385L159.767 37.2309L159.208 37.8233L158.593 38.3972L157.922 38.9346L157.195 39.453L156.412 39.9345L155.573 40.379L154.679 40.7861L153.691 41.1377L152.666 41.4343L151.548 41.6751L150.356 41.8604L149.107 41.9717L147.765 42.0087L146.423 41.9717L145.156 41.8604L143.963 41.6751L142.826 41.4343L141.764 41.1193L140.758 40.7491L139.826 40.342L138.931 39.8605L138.112 39.3417L137.347 38.7863L136.639 38.1935L135.968 37.5641L135.372 36.8974L134.813 36.2121L134.291 35.4899L133.825 34.7677L133.396 34.027L133.024 33.2674L132.688 32.5083L132.371 31.7302L132.11 30.971L131.868 30.2114L131.682 29.4522L131.495 28.7111L131.365 27.9889L131.253 27.2852L131.16 26.6189L131.085 25.9706L131.048 25.3409L131.029 24.7674L131.01 24.23L131.029 23.7301L131.048 23.4335L131.066 23.0633L131.122 22.6562L131.178 22.2117L131.253 21.7118L131.365 21.1744L131.477 20.6186L131.626 20.0262L131.812 19.3964L132.017 18.7482L132.241 18.1003L132.52 17.4336L132.819 16.7484L133.173 16.0631L133.545 15.3783L133.974 14.7116L134.44 14.0448L134.943 13.3781L135.503 12.7487L136.117 12.1189L136.769 11.5265L137.477 10.9707L138.261 10.4338L139.08 9.95232L139.975 9.48934L140.907 9.08181L141.932 8.73016L142.994 8.43397L144.149 8.19323L145.361 8.02644L146.647 7.91511L148.007 7.87814L149.591 7.93401L151.064 8.10039L152.443 8.35961L153.728 8.71167L154.902 9.15617L156.002 9.67461L157.008 10.2485L157.922 10.9153L158.76 11.619L159.525 12.3786L160.233 13.1747L160.848 14.0078L161.407 14.8783L161.892 15.7673L162.339 16.6563L162.711 17.5638L163.047 18.4898L163.327 19.3788L163.569 20.2678L163.774 21.1383L163.941 21.9718L164.072 22.768L164.165 23.5275L164.24 24.2313L164.296 24.898L164.314 25.4719L164.333 25.9904L164.352 26.4348V26.7865L164.333 27.0457V27.268H139.137V27.2696ZM155.165 20.5106L155.146 20.4551L155.09 20.3072L154.978 20.0665L154.829 19.7514L154.606 19.3997L154.345 18.9922L154.009 18.5477L153.599 18.1036L153.114 17.6591L152.555 17.2146L151.903 16.8071L151.157 16.4554L150.338 16.1408L149.406 15.9L148.362 15.7517L147.225 15.6963L146.238 15.7517L145.324 15.9L144.505 16.1408L143.759 16.4554L143.07 16.8071L142.473 17.2146L141.933 17.6591L141.467 18.1036L141.076 18.5477L140.74 18.9922L140.442 19.3997L140.218 19.7514L140.05 20.0665L139.938 20.3072L139.863 20.4551L139.845 20.5106H155.165ZM0 1.71476H7.28677V12.6403L7.32398 12.6033L7.45421 12.4924L7.67788 12.3071L7.97596 12.0663L8.34847 11.7886L8.7958 11.4924L9.31756 11.1589L9.93275 10.8072L10.6033 10.4736L11.3302 10.1405L12.1314 9.84428L13.0075 9.56657L13.9203 9.32584L14.908 9.14056L15.9515 9.02923L17.0508 8.99226L17.8339 9.01074L18.6165 9.0662L19.3805 9.15905L20.1446 9.27038L20.89 9.43717L21.6354 9.62244L22.3436 9.86318L23.0704 10.1224L23.7596 10.419L24.4306 10.7526L25.1016 11.1227L25.7354 11.5113L26.3502 11.9558L26.9654 12.4188L27.543 12.9188L28.0837 13.4561L28.6241 14.0115L29.1272 14.6228L29.5932 15.2522L30.0405 15.9189L30.4692 16.6042L30.8417 17.3264L31.1956 18.0855L31.5314 18.8817L31.8108 19.6963L32.0717 20.5668L32.2768 21.4373L32.4632 22.3633L32.6125 23.3078L32.7055 24.2892L32.7613 25.2895L32.7799 26.3264L32.7427 27.4372L32.6683 28.5115L32.5563 29.5299L32.3884 30.5117L32.1833 31.4373L31.9411 32.3448L31.6616 33.1783L31.3449 33.9925L31.0092 34.7706L30.6181 35.4928L30.208 36.178L29.7606 36.8263L29.2947 37.4557L28.7915 38.0296L28.2698 38.5669L27.7108 39.0668L27.1514 39.5298L26.5553 39.9554L25.9405 40.363L25.3067 40.7146L24.6543 41.0482L23.9833 41.3448L23.2937 41.6225L22.6041 41.8632L21.8959 42.0666L21.1881 42.2334L20.4613 42.3813L19.7344 42.5107L18.989 42.6035L18.2436 42.659L17.4982 42.6964L16.7527 42.7148L15.7651 42.6964L14.796 42.622L13.8641 42.5107L12.9508 42.3628L12.0752 42.1775L11.2367 41.9368L10.3979 41.6775L9.61523 41.3629L8.85079 41.0293L8.12439 40.6407L7.41617 40.2336L6.74517 39.7891L6.09277 39.3261L5.4966 38.8261L4.90043 38.2888L4.36007 37.7329L3.83832 37.1595L3.35377 36.5482L2.90727 35.9172L2.47854 35.2689L2.08743 34.6026L1.73353 33.8989L1.39782 33.1951L1.11834 32.4729L0.857462 31.7318L0.633794 30.9727L0.428731 30.1946L0.279481 29.4165L0.14925 28.6212L0.0748315 27.825L0.019018 27.0104L0 26.1953V1.71476ZM7.80852 22.7326V28.5472L7.84573 28.6212L7.93876 28.8249L8.12521 29.14L8.34888 29.5471L8.66599 30.029L9.03849 30.566L9.46722 31.1583L9.97037 31.7507L10.5293 32.3431L11.1631 32.9359L11.8527 33.4728L12.5982 33.9543L13.418 34.3618L14.2941 34.6765L15.2259 34.8803L16.2136 34.9546L17.2199 34.8988L18.1704 34.7509L19.1023 34.4917L19.9784 34.14L20.7982 33.7325L21.5622 33.2325L22.2704 32.6767L22.9414 32.0658L23.519 31.3991L24.0408 30.6954L24.4881 29.9547L24.8796 29.1955L25.1777 28.4359L25.3828 27.6398L25.5316 26.8621L25.5688 26.084L25.5316 25.3244L25.4386 24.5283L25.2707 23.7502L25.0285 22.9721L24.73 22.213L24.3575 21.4907L23.9101 20.7685L23.3884 20.1018L22.7922 19.4905L22.1212 18.9166L21.3758 18.4162L20.5559 17.9906L19.6427 17.6571L18.6736 17.3978L17.6115 17.2311L16.4559 17.1756L15.3004 17.2311L14.2569 17.4163L13.2878 17.694L12.4117 18.0457L11.6105 18.4717L10.9022 18.9347L10.2871 19.4346L9.7281 19.9531L9.26216 20.4715L8.85203 20.9715L8.53534 21.4345L8.25586 21.8605L8.0508 22.2121L7.92015 22.4898L7.82671 22.6751L7.80852 22.7326ZM164.502 41.139H172.328V24.1031L172.347 23.325L172.44 22.5843L172.571 21.844L172.757 21.1399L172.981 20.4736L173.279 19.8253L173.596 19.2325L173.968 18.6771L174.379 18.1587L174.844 17.7142L175.329 17.3071L175.869 16.955L176.428 16.6773L177.043 16.455L177.677 16.3067L178.348 16.2328L178.702 16.2143L179.019 16.1958H179.336L179.615 16.1773H180.137L180.361 16.1958H180.92L181.05 16.2143H181.255L181.311 16.2328H181.367V7.95537H179.541L178.422 7.97386L177.36 8.0667L176.354 8.17762L175.403 8.36249L174.491 8.56625L173.633 8.82547L172.813 9.12207L172.049 9.45524L171.322 9.82579L170.651 10.2329L170.018 10.6589L169.421 11.1219L168.881 11.6034L168.359 12.1033L167.893 12.6218L167.446 13.1772L167.055 13.7326L166.682 14.3069L166.347 14.8808L166.048 15.4736L165.769 16.066L165.526 16.6588L165.321 17.2697L165.135 17.8625L164.986 18.4738L164.837 19.0477L164.744 19.64L164.65 20.2139L164.576 20.7698L164.538 21.3067L164.502 21.844V41.139ZM176.876 37.4544L176.894 36.9729L176.969 36.4915L177.099 36.047L177.267 35.6025L177.472 35.1954L177.714 34.8252L177.975 34.4732L178.292 34.14L178.628 33.8434L179 33.5842L179.391 33.3434L179.802 33.1582L180.23 33.0103L180.677 32.8989L181.144 32.825L181.609 32.8061L182.075 32.825L182.541 32.8989L182.988 33.0103L183.417 33.1582L183.845 33.3434L184.237 33.5842L184.59 33.8434L184.926 34.14L185.243 34.4732L185.522 34.8252L185.764 35.1954L185.97 35.6025L186.119 36.047L186.249 36.4915L186.323 36.9729L186.342 37.4544L186.323 37.9359L186.249 38.4174L186.119 38.8619L185.97 39.2879L185.764 39.695L185.522 40.0836L185.243 40.4357L184.926 40.7688L184.59 41.0654L184.237 41.3247L183.845 41.5469L183.417 41.7322L182.988 41.8801L182.541 41.9914L182.075 42.0654L181.609 42.0843L181.144 42.0654L180.677 41.9914L180.23 41.8801L179.802 41.7322L179.391 41.5469L179 41.3247L178.628 41.0654L178.292 40.7688L177.975 40.4357L177.714 40.0836L177.472 39.695L177.267 39.2879L177.099 38.8619L176.969 38.4174L176.894 37.9359L176.876 37.4544ZM177.602 37.4544L177.621 37.8619L177.677 38.2691L177.789 38.6392L177.92 39.0093L178.087 39.3429L178.292 39.6765L178.534 39.9731L178.795 40.2508L179.075 40.51L179.392 40.7323L179.709 40.9175L180.063 41.0839L180.435 41.2133L180.808 41.3062L181.199 41.362L181.609 41.3805L182.019 41.362L182.41 41.3062L182.801 41.2133L183.174 41.0839L183.51 40.9175L183.845 40.7323L184.162 40.51L184.442 40.2508L184.703 39.9731L184.945 39.6765L185.151 39.3429L185.318 39.0093L185.448 38.6392L185.56 38.2691L185.616 37.8619L185.635 37.4544L185.616 37.0469L185.56 36.6398L185.448 36.2512L185.318 35.8995L185.151 35.5478L184.945 35.2143L184.703 34.9177L184.442 34.64L184.162 34.3992L183.845 34.1585L183.51 33.9732L183.174 33.8068L182.801 33.6774L182.41 33.5846L182.019 33.5287L181.609 33.5102L181.199 33.5287L180.808 33.5846L180.435 33.6774L180.063 33.8068L179.709 33.9732L179.392 34.1585L179.075 34.3992L178.795 34.64L178.534 34.9177L178.292 35.2143L178.087 35.5478L177.92 35.8995L177.789 36.2512L177.677 36.6398L177.621 37.0469L177.602 37.4544ZM180.603 40.0836H179.82V34.8063H181.833L182.28 34.8248L182.671 34.8988L183.007 35.0101L183.268 35.158L183.473 35.3618L183.622 35.621L183.696 35.9176L183.734 36.2692L183.715 36.6209L183.622 36.9175L183.51 37.1582L183.342 37.3616L183.137 37.5099L182.913 37.6212L182.653 37.6952L182.373 37.7321L183.845 40.084H182.97L181.553 37.8065H180.603V40.0836H180.603ZM181.609 37.0839H181.852L182.094 37.0654L182.318 37.0465L182.504 36.9725L182.672 36.8797L182.802 36.7318L182.877 36.5465L182.914 36.2688L182.895 36.0281L182.821 35.8428L182.709 35.6949L182.56 35.6021L182.373 35.5281L182.168 35.4907L181.963 35.4538H180.603V37.0835H181.609V37.0839Z" fill="#A9A9A9"/>
</svg>
