<svg width="13" height="13" viewBox="0 0 13 13" fill="none" xmlns="http://www.w3.org/2000/svg">
<path d="M13 6.5C13 8.22391 12.3152 9.87721 11.0962 11.0962C9.87721 12.3152 8.22391 13 6.5 13C4.77609 13 3.12279 12.3152 1.90381 11.0962C0.68482 9.87721 0 8.22391 0 6.5C0 4.77609 0.68482 3.12279 1.90381 1.90381C3.12279 0.68482 4.77609 0 6.5 0C8.22391 0 9.87721 0.68482 11.0962 1.90381C12.3152 3.12279 13 4.77609 13 6.5ZM6.90625 3.65625C6.90625 3.54851 6.86345 3.44517 6.78726 3.36899C6.71108 3.2928 6.60774 3.25 6.5 3.25C6.39226 3.25 6.28892 3.2928 6.21274 3.36899C6.13655 3.44517 6.09375 3.54851 6.09375 3.65625V6.09375H3.65625C3.54851 6.09375 3.44517 6.13655 3.36899 6.21274C3.2928 6.28892 3.25 6.39226 3.25 6.5C3.25 6.60774 3.2928 6.71108 3.36899 6.78726C3.44517 6.86345 3.54851 6.90625 3.65625 6.90625H6.09375V9.34375C6.09375 9.45149 6.13655 9.55483 6.21274 9.63101C6.28892 9.7072 6.39226 9.75 6.5 9.75C6.60774 9.75 6.71108 9.7072 6.78726 9.63101C6.86345 9.55483 6.90625 9.45149 6.90625 9.34375V6.90625H9.34375C9.45149 6.90625 9.55483 6.86345 9.63101 6.78726C9.7072 6.71108 9.75 6.60774 9.75 6.5C9.75 6.39226 9.7072 6.28892 9.63101 6.21274C9.55483 6.13655 9.45149 6.09375 9.34375 6.09375H6.90625V3.65625Z" fill="#FFD357"/>
</svg>
