<svg width="21" height="21" viewBox="0 0 21 21" fill="none" xmlns="http://www.w3.org/2000/svg">
<path d="M16.3933 16.4079C16.7806 16.0232 17.4015 16.0232 17.7888 16.4079L20.3487 18.4742H20.3932C20.9111 18.9977 20.9111 19.8465 20.3932 20.3699C19.8753 20.8934 19.0356 20.8934 18.5177 20.3699L16.3933 17.9352L16.3127 17.8442C16.1625 17.6541 16.0796 17.4172 16.0796 17.1715C16.0796 16.8849 16.1925 16.6102 16.3933 16.4079ZM9.33569 0.721283C11.6153 0.721283 13.8016 1.6366 15.4135 3.26588C17.0254 4.89517 17.931 7.10494 17.931 9.40909C17.931 14.2072 14.0828 18.0969 9.33569 18.0969C4.58862 18.0969 0.740356 14.2072 0.740356 9.40909C0.740356 4.61095 4.58862 0.721283 9.33569 0.721283Z" fill="#FFD357"/>
</svg>
