<svg width="59" height="60" viewBox="0 0 59 60" fill="none" xmlns="http://www.w3.org/2000/svg">
<path d="M45.2936 32.1939C45.0079 31.9078 44.6686 31.6807 44.2951 31.5259C43.9217 31.371 43.5213 31.2912 43.117 31.2912C42.7126 31.2912 42.3123 31.371 41.9388 31.5259C41.5653 31.6807 41.226 31.9078 40.9404 32.1939L36.033 37.1013C33.7579 36.424 29.5125 34.8846 26.8217 32.1939C24.131 29.5032 22.5917 25.2577 21.9144 22.9826L26.8217 18.0753C27.1079 17.7896 27.3349 17.4503 27.4898 17.0769C27.6447 16.7034 27.7244 16.303 27.7244 15.8987C27.7244 15.4944 27.6447 15.094 27.4898 14.7205C27.3349 14.347 27.1079 14.0077 26.8217 13.7221L14.5072 1.40754C14.2215 1.1214 13.8823 0.894384 13.5088 0.739496C13.1353 0.584607 12.7349 0.504883 12.3306 0.504883C11.9263 0.504883 11.5259 0.584607 11.1524 0.739496C10.7789 0.894384 10.4397 1.1214 10.154 1.40754L1.80475 9.75681C0.634866 10.9267 -0.0239624 12.5337 0.000666663 14.1746C0.0714753 18.5586 1.23212 33.7856 13.2326 45.7861C25.2332 57.7866 40.4601 58.9442 44.8472 59.0181H44.9334C46.5589 59.0181 48.0951 58.3777 49.2589 57.214L57.6081 48.8647C57.8943 48.5791 58.1213 48.2398 58.2762 47.8663C58.431 47.4928 58.5108 47.0925 58.5108 46.6881C58.5108 46.2838 58.431 45.8834 58.2762 45.51C58.1213 45.1365 57.8943 44.7972 57.6081 44.5115L45.2936 32.1939ZM44.9026 52.8577C41.0604 52.7931 27.9147 51.7617 17.5858 41.4298C7.22315 31.0671 6.21951 17.8752 6.15794 14.11L12.3306 7.93733L20.292 15.8987L16.3113 19.8794C15.9494 20.2409 15.6834 20.687 15.5372 21.1772C15.391 21.6674 15.3692 22.1863 15.4739 22.6871C15.5478 23.0411 17.3549 31.4366 22.4655 36.5471C27.576 41.6576 35.9715 43.4648 36.3255 43.5387C36.8259 43.6463 37.3454 43.6263 37.836 43.4805C38.3267 43.3347 38.7728 43.0678 39.1332 42.7044L43.117 38.7237L51.0783 46.685L44.9026 52.8577Z" fill="white"/>
</svg>
