<svg fill="none" version="1.1" viewBox="0 0 290.59 58.125" xmlns="http://www.w3.org/2000/svg">
 <path d="m76.297 23.967h3.9063c-0.36534-4.3279-2.9508-5.7611-6.8576-5.7611-4.4403 0-6.9134 2.1077-6.9134 6.1546 0 4.4684 2.5855 5.6768 5.0305 5.986 2.3045 0.30914 5.34 0.30914 5.34 2.8665 0 2.445-1.0679 3.4286-3.4009 3.4286-2.4731 0-3.2038-0.8993-3.2881-2.5574h-3.9063c0 3.4848 1.7143 6.0984 7.1101 6.0984 5.1995 0 7.3634-2.1077 7.3634-7.1101 0-4.3279-2.3888-5.3396-4.8899-5.733-3.2885-0.50586-5.4524-0.28103-5.4524-3.007 0-2.0515 0.8712-2.726 3.007-2.726 1.8833 0 2.8388 0.53396 2.9513 2.3607zm6.9123 9.9204c0 4.918 1.8267 6.6042 6.7166 6.0703v-3.3724c-2.5855 0.30913-2.8665-0.9274-2.8665-2.7541v-6.9977h2.8103v-3.5129h-2.8103v-3.2319l-3.8501 0.42155zm17.591-10.595c-2.0515-0.33724-3.9344 0.67447-4.6089 1.8267l-0.16862-1.7424h-3.541v16.609h3.8501v-9.4989c0-2.4731 1.9672-3.4567 4.4684-3.1194zm10.936 11.578c0 1.1522-0.75879 1.7986-2.5855 1.7986-1.5738 0-2.6136-0.50586-2.6136-3.1757v-0.42155h8.993v-3.2881c0-4.4684-2.0796-6.4637-6.4356-6.4637-4.356 0-6.4356 2.3045-6.4356 6.4637v3.7658c0 4.4684 2.0796 6.4637 6.4356 6.4637 4.356 0 6.4356-1.6581 6.4356-5.1429zm-2.5293-8.2061c2.192 0 2.5855 1.1522 2.5855 3.2319h-5.2553c0-1.9953 0.39344-3.2319 2.6698-3.2319zm17.353-8.6277c-5.1148-0.64637-7.8689 2.1077-7.8689 5.9017v16.047h3.8501v-11.578h3.5691v-3.541h-3.5691v-0.8712c0-1.8548 1.4333-2.9789 4.0188-2.5574zm10.357 15.316c-0.16862 1.6581-0.78689 3.2881-3.0351 3.2881-1.3208 0-2.2764-0.36534-2.2764-1.4614 0-1.3208 1.377-2.2201 5.3115-1.8267zm-4.7775-4.2717c-0.0281-1.7705 0.59017-2.3607 2.2764-2.3607 2.0234 0 2.5012 1.2365 2.5012 3.7096-5.7049-0.39344-8.9649 1.1522-8.9649 5.0586 0 3.1194 2.0515 4.6932 4.7775 4.6932 1.8548 0 3.4286-0.84309 4.356-2.1358l0.36534 1.911h3.1476v-10.201c0-4.2998-1.8829-6.4637-6.2108-6.4637-3.9625 0-6.1827 1.6581-5.9298 5.7892zm27.679 5.7611 4.2998-8.712-0.44965 6.1827v7.644h3.8782v-21.639h-3.7377l-4.4403 9.5832-4.4122-9.5832h-3.7377v21.639h3.8782v-7.644l-0.44965-6.1827 4.2998 8.712zm19.897 0.0281c0 1.1522-0.75879 1.7986-2.5855 1.7986-1.5738 0-2.6136-0.50586-2.6136-3.1757v-0.42155h8.993v-3.2881c0-4.4684-2.0796-6.4637-6.4356-6.4637-4.356 0-6.4356 2.3045-6.4356 6.4637v3.7658c0 4.4684 2.0796 6.4637 6.4356 6.4637 4.356 0 6.4356-1.6581 6.4356-5.1429zm-2.5293-8.2061c2.192 0 2.5855 1.1522 2.5855 3.2319h-5.2553c0-1.9953 0.39345-3.2319 2.6698-3.2319zm10.046 13.293h3.8501v-10.342c0-2.1358 1.1803-2.8665 2.6698-2.8665 1.6019 0 2.5012 0.8712 2.5012 3.007v10.201h3.822v-10.23c0-5.0586-2.6698-6.4918-5.3958-6.4637-1.4052 0-2.8665 0.56206-3.9063 1.7986l-0.19673-1.6862h-3.3443zm16.237-6.0703c0 4.918 1.8267 6.6042 6.7166 6.0703v-3.3724c-2.5855 0.30913-2.8665-0.9274-2.8665-2.7541v-6.9977h2.8103v-3.5129h-2.8103v-3.2319l-3.8501 0.42155zm8.459 6.0703h12.899v-3.5972h-7.1382l7.1382-12.478v-0.47775h-12.169v3.3724h6.4356l-7.1663 12.731zm23.774-5.0867c0 1.1522-0.75879 1.7986-2.5855 1.7986-1.5738 0-2.6136-0.50586-2.6136-3.1757v-0.42155h8.993v-3.2881c0-4.4684-2.0796-6.4637-6.4356-6.4637-4.356 0-6.4356 2.3045-6.4356 6.4637v3.7658c0 4.4684 2.0796 6.4637 6.4356 6.4637 4.356 0 6.4356-1.6581 6.4356-5.1429zm-2.5293-8.2061c2.192 0 2.5855 1.1522 2.5855 3.2319h-5.2553c0-1.9953 0.39344-3.2319 2.6698-3.2319zm10.046 13.293h3.8501v-10.342c0-2.1358 1.1803-2.8665 2.6698-2.8665 1.6019 0 2.5012 0.8712 2.5012 3.007v10.201h3.822v-10.23c0-5.0586-2.6698-6.4918-5.3958-6.4637-1.4052 0-2.8665 0.56206-3.9063 1.7986l-0.19672-1.6862h-3.3443zm24.772-6.6042c-0.16862 1.6581-0.78689 3.2881-3.0351 3.2881-1.3208 0-2.2764-0.36534-2.2764-1.4614 0-1.3208 1.377-2.2201 5.3115-1.8267zm-4.7775-4.2717c-0.0281-1.7705 0.59016-2.3607 2.2764-2.3607 2.0234 0 2.5012 1.2365 2.5012 3.7096-5.7049-0.39344-8.9649 1.1522-8.9649 5.0586 0 3.1194 2.0515 4.6932 4.7775 4.6932 1.8548 0 3.4286-0.84309 4.356-2.1358l0.36534 1.911h3.1476v-10.201c0-4.2998-1.8829-6.4637-6.2108-6.4637-3.9625 0-6.1827 1.6581-5.9298 5.7892z" fill="#3f3f3f" stroke-width="1.0809"/>
 <path d="m280.62 13.218h-6.9004v1.8613h2.4212v9.7453h2.0732v-9.7453h2.4061zm5.8065 8.8525 2.3153-4.6911-0.24212 3.3291v4.116h2.0883v-11.652h-2.0126l-2.3909 5.1602-2.3758-5.1602h-2.0126v11.652h2.0883v-4.116l-0.24212-3.3291 2.3153 4.6911z" fill="#3f3f3f" stroke-width="1.0809"/>
 <g transform="translate(-9.9491 -4.3806)" stroke-width=".10588">
  <path d="m10.196 62.506h17.809v-17.884h-17.809z" fill="#64c881"/>
  <path d="m50.265 22.265h17.809v-17.884h-17.809z" fill="#64c881"/>
  <path d="m32.457 26.737h35.617v35.769h-35.617z" fill="#fbc60d"/>
  <path d="m45.813 40.15v-35.769h-35.617v35.769z" fill="#97ddf5"/>
  <path d="m45.813 40.15v-13.413h-13.356v13.413z" fill="#64c881"/>
  <g fill="#3f3f3f">
   <path d="m41.361 35.679h-26.713v-26.826h26.713zm-31.412 4.4713h35.864v-35.769h-35.864z"/>
   <path d="m63.622 58.034h-26.713v-26.826h26.713zm-31.412 4.4713h35.864v-35.769h-35.864z"/>
   <path d="m45.566 31.208v-4.4713h-13.109v4.4713z"/>
   <path d="m36.909 40.15v-13.413h-4.4523v13.413z"/>
   <path d="m23.553 58.034h-8.9041v-8.9419h8.9041zm-13.356 4.4713h17.809v-17.884h-17.809z"/>
   <path d="m63.569 17.807h-9.0091v-8.9509h9.0091zm-13.514 4.4757h18.019v-17.902h-18.019z"/>
  </g>
 </g>
</svg>
