<svg width="1073" height="948" viewBox="0 0 1073 948" fill="none" xmlns="http://www.w3.org/2000/svg">
<path d="M539.805 493.916L736.724 833.234L647.034 885.016L450.993 547.218L281.377 643.119L229.595 553.429L398.654 454.809L172.365 71.6415L262.055 19.8591L489.543 403.348L646.998 314.468L698.78 404.158L539.805 493.916Z" fill="#FFD357"/>
<path d="M972.614 609.886C943.702 717.789 834.25 780.981 726.347 752.069L542.913 702.918L646.998 314.469L830.432 363.62C949.125 395.423 1001.21 503.183 972.614 609.886ZM879.098 584.829C894.518 527.281 862.922 472.555 813.767 459.384C788.59 452.638 714.257 432.72 714.257 432.72L660.287 634.138L759.797 660.802C809.274 672.774 863.679 642.377 879.098 584.829Z" fill="#FFD357"/>
</svg>
