<svg width="84" height="68" viewBox="0 0 84 68" fill="none" xmlns="http://www.w3.org/2000/svg">
<path d="M42.6235 35.8615L68.152 61.276L61.4279 68L36.0134 42.6994L23.2492 55.2358L16.5251 48.5117L29.1754 35.7475L0 7.1419L6.72402 0.417877L36.0134 29.0235L47.8659 17.3989L54.5899 24.1229L42.6235 35.8615Z" fill="#FFD357"/>
<path d="M83.7653 35.8615C83.7653 46.1184 75.5598 54.324 65.3028 54.324H47.8659V17.3989H65.3028C76.5855 17.3989 83.7653 25.7184 83.7653 35.8615ZM74.876 35.8615C74.876 30.3911 70.7732 26.2883 66.1005 26.2883C63.7072 26.2883 56.6413 26.2883 56.6413 26.2883V45.4346H66.1005C70.7732 45.3207 74.876 41.3319 74.876 35.8615Z" fill="#FFD357"/>
</svg>
